<?xml version="1.0" encoding="UTF-8"?> <svg xmlns="http://www.w3.org/2000/svg" width="657pt" height="173pt" viewBox="0 0 657 173"> <path fill="#ffffff" stroke="#ffffff" stroke-width="0.09375" opacity="1.00" d=" M 231.61 0.00 L 247.63 0.00 C 249.46 0.68 252.02 1.06 252.66 3.24 C 253.27 5.41 252.86 7.69 252.59 9.88 C 251.46 16.95 249.92 23.96 248.97 31.06 C 256.83 31.24 264.69 31.06 272.56 31.09 C 271.93 36.82 270.74 42.46 269.72 48.13 C 261.75 48.66 253.76 47.98 245.80 48.48 C 243.63 60.87 241.34 73.25 239.31 85.66 C 238.74 89.97 238.50 95.66 242.78 98.20 C 248.24 101.00 254.64 99.55 260.53 99.99 C 259.72 105.65 258.67 111.28 257.64 116.91 C 250.77 117.35 243.88 117.06 237.00 117.13 C 230.64 117.14 223.58 115.73 219.30 110.62 C 215.02 105.52 214.62 98.39 215.50 92.07 C 217.81 77.46 220.82 62.95 222.99 48.32 C 217.76 48.25 212.54 48.39 207.32 48.27 C 208.10 42.55 209.17 36.87 210.25 31.20 C 215.57 30.94 220.92 31.44 226.23 30.82 C 227.99 20.54 229.81 10.27 231.61 0.00 Z"></path> <path fill="#ffffff" stroke="#ffffff" stroke-width="0.09375" opacity="1.00" d=" M 390.20 0.00 L 404.51 0.00 C 406.99 0.26 410.06 0.21 411.71 2.44 C 413.10 5.00 412.30 8.05 412.01 10.79 C 405.80 46.15 399.54 81.50 393.37 116.86 C 385.51 117.40 377.61 117.10 369.73 117.04 C 376.41 78.01 383.39 39.02 390.20 0.00 Z"></path> <path fill="#ffffff" stroke="#ffffff" stroke-width="0.09375" opacity="1.00" d=" M 433.23 0.00 L 457.07 0.00 C 455.54 7.10 454.93 14.38 453.00 21.39 C 445.19 21.34 437.38 21.49 429.58 21.29 C 430.60 14.16 431.93 7.08 433.23 0.00 Z"></path> <path fill="#ffffff" stroke="#ffffff" stroke-width="0.09375" opacity="1.00" d=" M 574.67 0.00 L 590.64 0.00 C 592.48 0.67 595.09 1.04 595.73 3.24 C 596.31 5.57 595.91 8.00 595.61 10.34 C 592.09 30.92 588.25 51.44 584.87 72.04 C 598.93 59.06 612.73 45.79 626.66 32.68 C 627.58 31.80 628.66 31.01 630.03 31.15 C 639.02 30.96 648.01 31.31 657.00 31.02 L 657.00 31.44 C 641.16 45.13 625.69 59.26 610.07 73.20 C 620.45 87.98 631.38 102.36 641.84 117.08 C 631.67 117.07 621.49 117.36 611.32 116.93 C 602.17 103.28 593.48 89.31 584.20 75.75 C 581.54 89.48 579.40 103.29 576.81 117.02 C 569.27 117.18 561.73 117.26 554.19 116.96 C 561.01 77.98 567.85 38.99 574.67 0.00 Z"></path> <path fill="#dc0c1a" stroke="#dc0c1a" stroke-width="0.09375" opacity="1.00" d=" M 314.42 30.74 C 327.28 28.49 341.82 29.25 352.55 37.46 C 360.69 43.63 364.69 53.99 364.59 64.01 C 364.74 81.66 356.55 99.74 341.64 109.65 C 329.64 117.70 314.42 120.13 300.30 117.73 C 292.65 116.38 285.15 112.96 279.93 107.07 C 274.54 101.09 272.01 92.97 271.89 85.00 C 271.64 70.92 276.59 56.60 286.19 46.18 C 293.58 38.13 303.70 32.74 314.42 30.74 M 318.42 48.65 C 310.06 49.91 303.13 56.12 299.76 63.71 C 296.71 70.68 295.20 78.50 296.22 86.09 C 296.92 91.45 300.27 96.63 305.44 98.61 C 313.62 101.75 323.55 99.94 330.00 93.95 C 336.68 87.86 339.68 78.74 340.44 69.94 C 340.91 64.09 340.14 57.54 335.89 53.12 C 331.42 48.54 324.47 47.69 318.42 48.65 Z"></path> <path fill="#ffffff" stroke="#ffffff" stroke-width="0.09375" opacity="1.00" d=" M 33.06 34.77 C 34.05 31.97 37.25 31.19 39.90 31.17 C 47.60 31.02 55.30 31.18 63.00 31.11 C 70.03 31.06 77.29 31.46 83.80 34.38 C 88.65 36.50 92.71 40.54 94.50 45.56 C 96.67 51.56 96.19 58.12 95.12 64.29 C 92.00 81.85 88.98 99.44 85.83 117.00 C 65.56 117.30 45.29 117.04 25.02 117.13 C 18.13 117.16 10.39 115.69 5.84 110.03 C 1.43 104.40 1.69 96.66 3.20 90.02 C 4.81 82.35 8.63 74.65 15.55 70.50 C 23.75 65.52 33.66 64.91 43.00 64.88 C 52.54 64.80 62.09 65.02 71.62 64.78 C 72.10 61.04 73.07 56.73 70.63 53.44 C 67.64 49.75 62.45 49.41 58.06 49.08 C 48.82 48.81 39.56 48.96 30.31 49.00 C 30.83 44.21 31.48 39.34 33.06 34.77 M 30.45 84.43 C 27.15 86.74 26.01 91.10 26.19 94.94 C 26.27 96.73 27.54 98.32 29.22 98.87 C 33.02 100.07 37.07 99.73 41.00 99.82 C 49.19 99.73 57.38 99.97 65.57 99.70 C 66.54 93.82 67.77 87.97 68.53 82.05 C 59.68 82.08 50.84 82.04 41.99 82.07 C 38.09 82.21 33.84 82.19 30.45 84.43 Z"></path> <path fill="#ffffff" stroke="#ffffff" stroke-width="0.09375" opacity="1.00" d=" M 120.11 31.17 C 127.56 31.01 135.02 31.24 142.48 31.04 C 139.99 50.09 135.66 68.93 132.97 87.97 C 132.24 91.84 133.79 96.68 138.15 97.40 C 146.63 98.82 155.32 98.03 163.89 98.09 C 168.01 75.80 171.63 53.42 175.83 31.14 C 183.32 31.09 190.82 31.10 198.32 31.14 C 193.56 59.73 188.24 88.23 183.42 116.82 C 169.64 117.54 155.80 116.91 142.00 117.13 C 132.92 117.06 122.71 116.72 115.49 110.46 C 109.03 104.57 109.05 94.93 110.31 86.94 C 113.51 68.34 116.80 49.75 120.11 31.17 Z"></path> <path fill="#ffffff" stroke="#ffffff" stroke-width="0.09375" opacity="1.00" d=" M 427.82 31.14 C 435.67 31.08 443.53 31.15 451.38 31.10 C 446.77 59.73 441.33 88.24 436.53 116.85 C 428.60 117.44 420.62 117.04 412.67 117.06 C 417.62 88.41 422.59 59.75 427.82 31.14 Z"></path> <path fill="#ffffff" stroke="#ffffff" stroke-width="0.09375" opacity="1.00" d=" M 471.04 31.18 C 484.36 31.04 497.68 31.17 511.00 31.12 C 518.63 31.12 526.52 31.27 533.68 34.22 C 537.98 35.96 541.67 39.34 543.30 43.73 C 545.55 49.66 544.94 56.19 544.00 62.32 C 540.85 80.51 537.56 98.67 534.46 116.87 C 526.92 117.40 519.34 117.08 511.78 117.05 C 514.71 98.99 518.17 81.01 521.14 62.95 C 521.55 59.48 522.31 55.13 519.45 52.46 C 516.53 50.18 512.58 50.23 509.06 50.12 C 502.82 50.17 496.57 50.01 490.33 50.22 C 486.42 72.45 482.49 94.68 478.61 116.92 C 471.07 117.33 463.50 117.11 455.96 117.05 C 460.86 88.41 465.92 59.78 471.04 31.18 Z"></path> <path fill="#ffffff" stroke="#ffffff" stroke-width="0.09375" opacity="1.00" d=" M 204.04 149.12 C 205.26 149.16 206.49 149.20 207.71 149.23 C 211.98 154.26 215.60 159.83 220.04 164.72 C 220.35 159.55 220.07 154.36 220.22 149.19 C 221.54 149.18 222.86 149.16 224.19 149.14 C 224.45 156.94 224.29 164.74 224.28 172.55 C 223.44 172.58 221.77 172.64 220.94 172.67 C 216.46 167.40 212.63 161.61 208.04 156.43 C 207.92 161.82 208.06 167.20 208.00 172.58 C 206.63 172.58 205.27 172.58 203.91 172.58 C 203.92 164.76 203.68 156.93 204.04 149.12 Z"></path> <path fill="#ffffff" stroke="#ffffff" stroke-width="0.09375" opacity="1.00" d=" M 232.04 153.02 C 236.47 147.56 245.75 147.33 250.47 152.54 C 254.60 156.88 254.73 164.30 250.82 168.83 C 249.02 171.04 246.30 172.15 243.67 173.00 L 239.35 173.00 C 236.88 172.29 234.33 171.36 232.55 169.42 C 228.31 165.11 228.08 157.58 232.04 153.02 M 237.51 153.67 C 232.90 156.25 232.31 163.38 236.04 166.98 C 238.73 169.72 243.52 169.90 246.43 167.41 C 250.20 164.26 250.23 157.73 246.51 154.53 C 244.09 152.38 240.30 152.03 237.51 153.67 Z"></path> <path fill="#ffffff" stroke="#ffffff" stroke-width="0.09375" opacity="1.00" d=" M 255.50 149.16 C 256.94 149.17 258.38 149.17 259.83 149.15 C 262.05 154.67 263.49 160.47 265.44 166.09 C 267.77 160.57 269.20 154.74 271.27 149.14 C 272.43 149.14 273.59 149.14 274.75 149.13 C 276.83 154.73 278.26 160.57 280.58 166.08 C 282.55 160.47 283.98 154.67 286.20 149.15 C 287.60 149.16 289.00 149.16 290.41 149.15 C 287.69 157.02 285.03 164.91 282.23 172.74 C 281.37 172.78 279.65 172.86 278.80 172.89 C 276.62 167.53 275.18 161.89 272.94 156.55 C 270.77 161.85 269.25 167.39 267.22 172.74 C 266.36 172.78 264.65 172.86 263.79 172.89 C 260.84 165.05 258.26 157.07 255.50 149.16 Z"></path> <path fill="#ffffff" stroke="#ffffff" stroke-width="0.09375" opacity="1.00" d=" M 313.01 148.91 C 314.23 148.97 315.46 149.03 316.70 149.08 C 320.07 156.92 323.64 164.67 326.82 172.59 C 325.81 172.62 323.80 172.68 322.79 172.71 C 321.86 170.81 320.92 168.93 320.02 167.02 C 316.42 166.95 312.82 166.93 309.23 167.08 C 308.41 169.06 307.48 171.00 306.37 172.85 C 305.45 172.75 303.60 172.57 302.67 172.47 C 306.01 164.57 309.31 156.64 313.01 148.91 M 314.41 154.70 C 313.12 157.48 311.95 160.30 310.90 163.18 C 313.42 163.28 315.95 163.28 318.47 163.19 C 317.32 160.28 316.48 157.13 314.41 154.70 Z"></path> <path fill="#ffffff" stroke="#ffffff" stroke-width="0.09375" opacity="1.00" d=" M 331.05 149.11 C 332.26 149.16 333.49 149.20 334.71 149.23 C 338.97 154.28 342.60 159.83 347.04 164.73 C 347.35 159.55 347.07 154.36 347.23 149.18 C 348.52 149.18 349.82 149.17 351.13 149.15 C 351.38 156.94 351.23 164.74 351.22 172.53 C 350.40 172.57 348.76 172.65 347.94 172.69 C 343.45 167.42 339.63 161.62 335.04 156.45 C 334.91 161.83 335.06 167.21 335.00 172.59 C 333.63 172.58 332.27 172.58 330.91 172.57 C 330.93 164.75 330.68 156.93 331.05 149.11 Z"></path> <path fill="#ffffff" stroke="#ffffff" stroke-width="0.09375" opacity="1.00" d=" M 357.27 149.24 C 362.89 149.36 369.34 148.04 374.11 151.82 C 379.62 155.95 379.83 165.16 374.57 169.59 C 369.83 173.70 362.95 172.78 357.18 172.32 C 357.33 164.63 357.17 156.93 357.27 149.24 M 361.35 153.09 C 361.38 158.31 361.35 163.54 361.38 168.77 C 364.45 168.77 367.82 169.27 370.57 167.57 C 375.17 164.77 375.16 157.08 370.58 154.26 C 367.83 152.53 364.43 153.01 361.35 153.09 Z"></path> <path fill="#ffffff" stroke="#ffffff" stroke-width="0.09375" opacity="1.00" d=" M 393.75 149.10 C 395.05 149.15 396.36 149.19 397.67 149.22 C 397.55 157.09 398.05 164.98 397.41 172.82 C 396.46 172.74 394.55 172.59 393.60 172.51 C 393.62 164.71 393.34 156.89 393.75 149.10 Z"></path> <path fill="#ffffff" stroke="#ffffff" stroke-width="0.09375" opacity="1.00" d=" M 404.04 149.12 C 405.26 149.16 406.48 149.20 407.71 149.23 C 411.97 154.28 415.60 159.84 420.04 164.74 C 420.35 159.56 420.07 154.36 420.23 149.18 C 421.52 149.18 422.82 149.17 424.13 149.15 C 424.38 156.94 424.23 164.74 424.22 172.54 C 423.40 172.57 421.76 172.65 420.94 172.68 C 416.45 167.42 412.63 161.62 408.04 156.44 C 407.92 161.82 408.06 167.20 408.00 172.58 C 406.63 172.58 405.27 172.58 403.91 172.58 C 403.92 164.76 403.68 156.93 404.04 149.12 Z"></path> <path fill="#ffffff" stroke="#ffffff" stroke-width="0.09375" opacity="1.00" d=" M 438.51 149.30 C 444.78 149.02 451.06 149.29 457.34 149.13 C 457.53 150.41 457.59 151.71 457.54 153.01 C 455.09 153.03 452.64 153.08 450.20 153.12 C 450.12 159.60 450.26 166.09 450.16 172.58 C 448.76 172.58 447.36 172.58 445.97 172.58 C 445.86 166.10 446.00 159.61 445.93 153.13 C 443.43 153.11 440.94 153.00 438.46 152.81 C 438.48 151.64 438.49 150.47 438.51 149.30 Z"></path> <path fill="#ffffff" stroke="#ffffff" stroke-width="0.09375" opacity="1.00" d=" M 462.00 149.18 C 463.31 149.17 464.61 149.15 465.92 149.13 C 466.00 152.37 466.00 155.61 466.04 158.86 C 469.69 158.91 473.34 158.92 476.99 158.84 C 477.06 155.61 477.06 152.38 477.11 149.14 C 478.45 149.16 479.79 149.17 481.14 149.18 C 481.37 156.98 481.24 164.78 481.22 172.58 C 479.81 172.58 478.42 172.57 477.02 172.56 C 477.07 169.31 477.07 166.06 477.00 162.82 C 473.34 162.69 469.69 162.69 466.03 162.82 C 465.99 166.07 465.99 169.33 466.00 172.59 C 464.63 172.58 463.27 172.58 461.91 172.58 C 461.90 164.78 461.73 156.97 462.00 149.18 Z"></path> <path fill="#ffffff" stroke="#ffffff" stroke-width="0.09375" opacity="1.00" d=" M 487.22 149.22 C 493.01 149.17 498.80 149.09 504.60 149.28 C 504.60 150.46 504.62 151.63 504.65 152.81 C 500.21 153.09 495.77 152.78 491.34 153.11 C 491.34 155.02 491.34 156.93 491.35 158.85 C 495.24 159.00 499.14 158.89 503.04 158.99 C 503.05 159.89 503.07 161.69 503.08 162.59 C 499.20 162.77 495.32 162.67 491.44 162.68 C 491.37 164.71 491.34 166.75 491.34 168.80 C 495.76 168.96 500.18 168.83 504.61 168.88 C 504.63 169.80 504.67 171.66 504.69 172.59 C 498.84 172.59 492.98 172.85 487.14 172.44 C 487.24 164.70 487.11 156.96 487.22 149.22 Z"></path> <path fill="#ffffff" stroke="#ffffff" stroke-width="0.09375" opacity="1.00" d=" M 519.70 149.18 C 525.44 149.18 531.18 149.14 536.93 149.21 C 536.94 150.45 536.96 151.69 537.00 152.93 C 532.57 153.09 528.14 152.93 523.72 153.03 C 523.67 155.10 523.67 157.18 523.73 159.25 C 527.68 159.55 531.73 158.83 535.63 159.72 C 535.55 160.56 535.40 162.24 535.33 163.07 C 531.44 163.17 527.54 163.04 523.65 163.24 C 523.71 166.37 523.69 169.50 523.65 172.64 C 522.63 172.62 520.60 172.59 519.59 172.58 C 519.60 164.78 519.39 156.97 519.70 149.18 Z"></path> <path fill="#ffffff" stroke="#ffffff" stroke-width="0.09375" opacity="1.00" d=" M 541.19 149.06 C 542.51 149.14 543.85 149.23 545.19 149.31 C 545.37 154.52 544.75 159.77 545.55 164.94 C 546.33 170.24 555.03 170.64 556.44 165.58 C 557.51 160.18 556.59 154.61 557.08 149.15 C 558.35 149.14 559.63 149.14 560.91 149.14 C 561.05 154.70 561.44 160.30 560.70 165.83 C 560.09 170.16 555.93 172.88 551.78 173.00 L 550.23 173.00 C 546.09 172.87 541.98 170.12 541.39 165.82 C 540.69 160.27 541.07 154.64 541.19 149.06 Z"></path> <path fill="#ffffff" stroke="#ffffff" stroke-width="0.09375" opacity="1.00" d=" M 565.03 149.20 C 571.34 149.16 577.66 149.16 583.97 149.20 C 583.98 150.46 583.99 151.71 584.01 152.97 C 581.55 153.03 579.09 153.08 576.64 153.09 C 576.36 159.64 576.82 166.20 576.40 172.74 C 575.41 172.70 573.42 172.61 572.42 172.56 C 572.28 166.11 572.40 159.66 572.41 153.20 C 569.93 153.10 567.45 153.00 564.98 152.94 C 564.99 151.69 565.01 150.45 565.03 149.20 Z"></path> <path fill="#ffffff" stroke="#ffffff" stroke-width="0.09375" opacity="1.00" d=" M 603.75 149.31 C 605.10 149.23 606.45 149.15 607.81 149.06 C 607.92 154.64 608.32 160.27 607.56 165.81 C 606.92 170.10 602.83 172.86 598.69 173.00 L 596.26 173.00 C 592.70 172.46 589.17 170.23 588.41 166.50 C 587.36 160.82 588.01 154.99 587.91 149.25 C 589.28 149.25 590.65 149.25 592.03 149.25 C 592.27 154.43 591.66 159.66 592.37 164.81 C 593.02 170.06 601.57 170.75 603.22 165.82 C 604.37 160.41 603.47 154.80 603.75 149.31 Z"></path> <path fill="#ffffff" stroke="#ffffff" stroke-width="0.09375" opacity="1.00" d=" M 613.65 149.17 C 619.22 149.70 625.83 147.64 630.59 151.42 C 634.59 155.39 632.31 162.01 627.47 164.11 C 629.29 166.99 631.54 169.59 633.02 172.68 C 627.32 174.34 625.87 167.95 622.81 164.77 C 621.20 164.30 619.50 164.53 617.86 164.46 C 617.70 167.18 617.63 169.90 617.63 172.63 C 616.61 172.62 614.55 172.60 613.53 172.59 C 613.54 164.78 613.32 156.97 613.65 149.17 M 617.65 153.16 C 617.64 155.66 617.65 158.16 617.68 160.66 C 620.52 160.69 623.49 161.17 626.24 160.25 C 628.76 159.26 629.05 155.65 627.17 153.91 C 624.24 152.39 620.80 153.06 617.65 153.16 Z"></path> <path fill="#ffffff" stroke="#ffffff" stroke-width="0.09375" opacity="1.00" d=" M 637.75 149.19 C 643.49 149.18 649.23 149.15 654.98 149.20 C 654.98 150.43 654.99 151.66 655.02 152.90 C 650.59 153.06 646.16 152.70 641.76 153.19 C 641.77 155.05 641.77 156.92 641.77 158.78 C 645.71 159.07 649.67 158.77 653.62 159.18 C 653.57 160.32 653.54 161.47 653.52 162.62 C 649.69 162.73 645.86 162.67 642.03 162.71 C 641.79 164.71 641.72 166.72 641.73 168.74 C 646.18 169.02 650.64 168.78 655.10 168.92 C 655.11 169.82 655.14 171.63 655.15 172.54 C 649.32 172.71 643.49 172.69 637.67 172.54 C 637.64 164.76 637.48 156.97 637.75 149.19 Z"></path> </svg> 