<?xml version="1.0" encoding="UTF-8"?>
<!DOCTYPE svg PUBLIC "-//W3C//DTD SVG 1.1//EN" "http://www.w3.org/Graphics/SVG/1.1/DTD/svg11.dtd">
<!-- Creator: CorelDRAW 2021.5 -->
<svg xmlns="http://www.w3.org/2000/svg" xml:space="preserve" width="167px" height="56px" version="1.1" style="shape-rendering:geometricPrecision; text-rendering:geometricPrecision; image-rendering:optimizeQuality; fill-rule:evenodd; clip-rule:evenodd"
viewBox="0 0 150.6 50.76"
 xmlns:xlink="http://www.w3.org/1999/xlink"
 xmlns:xodm="http://www.corel.com/coreldraw/odm/2003">
 <defs>
  <style type="text/css">
   <![CDATA[
    .fil5 {fill:#FEFEFE}
    .fil0 {fill:#24465B}
    .fil2 {fill:#283F52}
    .fil4 {fill:#2D2928}
    .fil3 {fill:#366F7D}
    .fil31 {fill:#51AACC}
    .fil1 {fill:#FEFEFE}
    .fil32 {fill:#4BA6C8;fill-rule:nonzero}
    .fil30 {fill:#F4F4F4;fill-rule:nonzero}
    .fil10 {fill:url(#id0)}
    .fil8 {fill:url(#id1)}
    .fil18 {fill:url(#id2)}
    .fil22 {fill:url(#id3)}
    .fil24 {fill:url(#id4)}
    .fil6 {fill:url(#id5)}
    .fil12 {fill:url(#id6)}
    .fil16 {fill:url(#id7)}
    .fil14 {fill:url(#id8)}
    .fil20 {fill:url(#id9)}
    .fil27 {fill:url(#id10);fill-rule:nonzero}
    .fil7 {fill:url(#id11);fill-rule:nonzero}
    .fil26 {fill:url(#id12);fill-rule:nonzero}
    .fil11 {fill:url(#id13);fill-rule:nonzero}
    .fil28 {fill:url(#id14);fill-rule:nonzero}
    .fil29 {fill:url(#id15);fill-rule:nonzero}
    .fil9 {fill:url(#id16);fill-rule:nonzero}
    .fil23 {fill:url(#id17);fill-rule:nonzero}
    .fil15 {fill:url(#id18);fill-rule:nonzero}
    .fil13 {fill:url(#id19);fill-rule:nonzero}
    .fil19 {fill:url(#id20);fill-rule:nonzero}
    .fil21 {fill:url(#id21);fill-rule:nonzero}
    .fil17 {fill:url(#id22);fill-rule:nonzero}
    .fil25 {fill:url(#id23);fill-rule:nonzero}
   ]]>
  </style>
  <linearGradient id="id0" gradientUnits="userSpaceOnUse" x1="13.82" y1="33.36" x2="22.19" y2="14.92">
   <stop offset="0" style="stop-opacity:1; stop-color:#FEFEFE"/>
   <stop offset="1" style="stop-opacity:1; stop-color:#FEFEFE"/>
  </linearGradient>
  <linearGradient id="id1" gradientUnits="userSpaceOnUse" x1="7.51" y1="14.3" x2="56.69" y2="36.47">
   <stop offset="0" style="stop-opacity:1; stop-color:#FEFEFE"/>
   <stop offset="0.431373" style="stop-opacity:1; stop-color:#FEFEFE"/>
   <stop offset="1" style="stop-opacity:1; stop-color:#FEFEFE"/>
  </linearGradient>
  <linearGradient id="id2" gradientUnits="userSpaceOnUse" xlink:href="#id0" x1="24.61" y1="36.02" x2="30.29" y2="32.17">
  </linearGradient>
  <linearGradient id="id3" gradientUnits="userSpaceOnUse" xlink:href="#id0" x1="43.87" y1="36.63" x2="48.97" y2="31.51">
  </linearGradient>
  <linearGradient id="id4" gradientUnits="userSpaceOnUse" x1="15.66" y1="44.53" x2="37.65" y2="19.66">
   <stop offset="0" style="stop-opacity:1; stop-color:#FEFEFE"/>
   <stop offset="0.4" style="stop-opacity:1; stop-color:#FEFEFE"/>
   <stop offset="1" style="stop-opacity:1; stop-color:#FEFEFE"/>
  </linearGradient>
  <linearGradient id="id5" gradientUnits="userSpaceOnUse" x1="53.75" y1="28.32" x2="61.71" y2="37.64">
   <stop offset="0" style="stop-opacity:1; stop-color:#FEFEFE"/>
   <stop offset="0.329412" style="stop-opacity:1; stop-color:#FEFEFE"/>
   <stop offset="1" style="stop-opacity:1; stop-color:#FEFEFE"/>
  </linearGradient>
  <linearGradient id="id6" gradientUnits="userSpaceOnUse" xlink:href="#id0" x1="35.68" y1="15.46" x2="59.32" y2="15.48">
  </linearGradient>
  <linearGradient id="id7" gradientUnits="userSpaceOnUse" xlink:href="#id0" x1="15.69" y1="35.67" x2="23.18" y2="32.23">
  </linearGradient>
  <linearGradient id="id8" gradientUnits="userSpaceOnUse" xlink:href="#id0" x1="7.07" y1="36.31" x2="14.83" y2="31.81">
  </linearGradient>
  <linearGradient id="id9" gradientUnits="userSpaceOnUse" xlink:href="#id0" x1="35.02" y1="36.59" x2="43.05" y2="31.47">
  </linearGradient>
  <linearGradient id="id10" gradientUnits="userSpaceOnUse" x1="54.41" y1="14.62" x2="57.88" y2="16.38">
   <stop offset="0" style="stop-opacity:1; stop-color:#50A9CB"/>
   <stop offset="0.341176" style="stop-opacity:1; stop-color:#285566"/>
   <stop offset="1" style="stop-opacity:1; stop-color:black"/>
  </linearGradient>
  <linearGradient id="id11" gradientUnits="userSpaceOnUse" x1="54.74" y1="29.25" x2="61.68" y2="36.85">
   <stop offset="0" style="stop-opacity:1; stop-color:#A1D2ED"/>
   <stop offset="0.329412" style="stop-opacity:1; stop-color:#79BEDC"/>
   <stop offset="1" style="stop-opacity:1; stop-color:#50A9CA"/>
  </linearGradient>
  <linearGradient id="id12" gradientUnits="userSpaceOnUse" x1="11.06" y1="17.12" x2="25" y2="32.41">
   <stop offset="0" style="stop-opacity:1; stop-color:#4BA6C8"/>
   <stop offset="0.560784" style="stop-opacity:1; stop-color:#265364"/>
   <stop offset="1" style="stop-opacity:1; stop-color:black"/>
  </linearGradient>
  <linearGradient id="id13" gradientUnits="userSpaceOnUse" x1="14.49" y1="32.28" x2="21.57" y2="15.76">
   <stop offset="0" style="stop-opacity:1; stop-color:#ADE5FA"/>
   <stop offset="1" style="stop-opacity:1; stop-color:#4BA6C8"/>
  </linearGradient>
  <linearGradient id="id14" gradientUnits="userSpaceOnUse" x1="55.65" y1="33.29" x2="65.67" y2="33.29">
   <stop offset="0" style="stop-opacity:1; stop-color:black"/>
   <stop offset="1" style="stop-opacity:1; stop-color:#4DA7C9"/>
  </linearGradient>
  <linearGradient id="id15" gradientUnits="userSpaceOnUse" x1="30.82" y1="19.41" x2="37.42" y2="37.41">
   <stop offset="0" style="stop-opacity:1; stop-color:#3E9DC2"/>
   <stop offset="0.631373" style="stop-opacity:1; stop-color:#236B86"/>
   <stop offset="1" style="stop-opacity:1; stop-color:#08384A"/>
  </linearGradient>
  <linearGradient id="id16" gradientUnits="userSpaceOnUse" x1="12.96" y1="14.28" x2="55.29" y2="35.65">
   <stop offset="0" style="stop-opacity:1; stop-color:#ADE5FA"/>
   <stop offset="0.431373" style="stop-opacity:1; stop-color:#7CC6E1"/>
   <stop offset="1" style="stop-opacity:1; stop-color:#4BA6C8"/>
  </linearGradient>
  <linearGradient id="id17" gradientUnits="userSpaceOnUse" x1="44.58" y1="36.1" x2="47.71" y2="32.1">
   <stop offset="0" style="stop-opacity:1; stop-color:#5AB0D0"/>
   <stop offset="1" style="stop-opacity:1; stop-color:black"/>
  </linearGradient>
  <linearGradient id="id18" gradientUnits="userSpaceOnUse" xlink:href="#id17" x1="7.8" y1="36.18" x2="13.74" y2="31.98">
  </linearGradient>
  <linearGradient id="id19" gradientUnits="userSpaceOnUse" x1="36.72" y1="15.51" x2="58.3" y2="15.52">
   <stop offset="0" style="stop-opacity:1; stop-color:#ADE5FA"/>
   <stop offset="1" style="stop-opacity:1; stop-color:#2B91B9"/>
  </linearGradient>
  <linearGradient id="id20" gradientUnits="userSpaceOnUse" xlink:href="#id17" x1="24.99" y1="35.94" x2="29.93" y2="32.26">
  </linearGradient>
  <linearGradient id="id21" gradientUnits="userSpaceOnUse" xlink:href="#id17" x1="33.3" y1="36.51" x2="40.01" y2="31.45">
  </linearGradient>
  <linearGradient id="id22" gradientUnits="userSpaceOnUse" xlink:href="#id17" x1="16.2" y1="35.65" x2="22.57" y2="32.26">
  </linearGradient>
  <linearGradient id="id23" gradientUnits="userSpaceOnUse" x1="17.72" y1="43.87" x2="35.71" y2="20.24">
   <stop offset="0" style="stop-opacity:1; stop-color:#A4DFF5"/>
   <stop offset="0.4" style="stop-opacity:1; stop-color:#7BC5E0"/>
   <stop offset="1" style="stop-opacity:1; stop-color:#52AACB"/>
  </linearGradient>
 </defs>
 <g id="Слой_x0020_1">
  <metadata id="CorelCorpID_0Corel-Layer"/>
  <g id="_2248918025616">
   <path class="fil0" d="M7.98 23.76l-0.05 1.51c0.05,0.23 0.02,1.13 0.04,1.46 0.08,1.42 0.23,2.59 0.52,3.96 0.34,1.65 0.86,3.14 1.45,4.6 0.42,1.05 1,2.05 1.54,3.03l1.21 1.85c0.18,0.24 0.63,0.88 0.84,1.09 0.1,0.1 0.65,0.85 0.86,1.03 0.16,0.14 0.23,0.25 0.37,0.39l0.95 0.98c0.09,0.08 0.1,0.09 0.2,0.19 0.29,0.31 1.66,1.48 2.08,1.76 0.31,0.22 0.59,0.45 0.91,0.66 0.7,0.45 1.14,0.77 1.91,1.19 1.15,0.64 1.83,0.97 3.15,1.51 0.73,0.3 1.54,0.57 2.33,0.8 1.56,0.44 3.66,0.87 5.37,0.92l1.27 0.04c0.34,0.09 2.38,-0.06 2.87,-0.11 0.87,-0.08 1.78,-0.21 2.61,-0.39 2.9,-0.63 5.7,-1.69 8.18,-3.25 0.43,-0.27 1.48,-0.96 1.84,-1.25l1.28 -1.03c0.14,-0.13 0.27,-0.22 0.42,-0.34l1.56 -1.54c0.64,-0.65 1.22,-1.36 1.78,-2.07 2.58,-3.35 4.54,-7.99 4.99,-12.29 0.02,-0.26 0.09,-1.29 0.14,-1.43l0.05 -1.39c-0.04,-0.2 -0.03,-1.14 -0.04,-1.43 -0.01,-0.45 -0.05,-0.93 -0.09,-1.38 -0.18,-1.65 -0.5,-3.36 -1,-4.93 -0.23,-0.71 -0.49,-1.51 -0.79,-2.17 -0.99,-2.19 -1.05,-2.37 -2.35,-4.4l-0.94 -1.33c-0.06,-0.09 -0.11,-0.14 -0.17,-0.21l-1.21 -1.42c-0.12,-0.14 -0.23,-0.26 -0.36,-0.4l-1.54 -1.5 -1.66 -1.36c-0.15,-0.12 -0.29,-0.21 -0.44,-0.33l-0.91 -0.62c-0.17,-0.1 -0.31,-0.2 -0.47,-0.3l-1.44 -0.83c-2.82,-1.51 -5.6,-2.36 -8.76,-2.79 -0.12,-0.01 -0.24,-0.03 -0.36,-0.04 -0.32,-0.04 -0.3,0 -0.28,-0.09l-3.3 -0.11c-0.04,0.09 0.06,0.04 -0.14,0.06 -0.04,0 -0.14,0 -0.19,0 -1.66,0.07 -3.23,0.3 -4.85,0.68 -2.36,0.55 -3.93,1.23 -5.93,2.24 -0.18,0.09 -0.31,0.18 -0.49,0.27 -0.66,0.34 -1.26,0.76 -1.85,1.14 -0.72,0.47 -1.01,0.76 -1.53,1.12l-0.81 0.67c-0.35,0.28 -0.64,0.61 -0.97,0.9 -0.55,0.48 -0.72,0.73 -1.15,1.14 -0.41,0.4 -1.33,1.58 -1.71,2.07 -2.29,3.01 -3.95,6.96 -4.6,10.71 -0.08,0.45 -0.14,0.91 -0.2,1.36 -0.05,0.33 -0.07,1.17 -0.14,1.4z"/>
   <path class="fil1" d="M32.86 1.17c-2.87,0.02 -4.95,0.53 -7.53,1.34 -1.06,0.33 -3.09,1.26 -4.1,1.88 -1.08,0.66 -1.8,1.09 -2.81,1.88l-0.52 0.42c-0.08,0.07 -0.15,0.11 -0.22,0.17 -0.24,0.23 -0.39,0.31 -0.6,0.54 -0.19,0.21 -0.64,0.56 -0.97,0.92l-1.44 1.58c-1.34,1.55 -2.65,3.7 -3.52,5.65 -2.81,6.26 -2.77,13.72 0.12,19.94 0.32,0.69 0.64,1.34 1.01,1.97 0.33,0.53 0.65,1.11 1.02,1.62 0.42,0.58 1,1.41 1.46,1.92l0.52 0.61c0.23,0.23 0.28,0.25 0.55,0.59 0.1,0.12 0.28,0.27 0.39,0.38l1.17 1.08c0.63,0.55 1.46,1.22 2.14,1.68 1.49,0.98 2.27,1.45 3.92,2.19 3,1.36 6.64,2.13 10.28,2.08 4.99,-0.07 9.66,-1.72 13.47,-4.38 0.15,-0.11 0.28,-0.21 0.42,-0.31 0.15,-0.1 0.29,-0.21 0.43,-0.32 0.31,-0.26 0.73,-0.56 1.04,-0.85 0.19,-0.18 0.36,-0.29 0.61,-0.54 0.15,-0.15 0.22,-0.22 0.39,-0.36 0.27,-0.22 0.49,-0.52 0.74,-0.76 0.39,-0.37 0.73,-0.8 1.08,-1.2 0.12,-0.14 0.24,-0.29 0.34,-0.42 0.12,-0.16 0.22,-0.28 0.34,-0.44 0.59,-0.84 1.33,-1.82 1.81,-2.74 0.36,-0.68 0.7,-1.33 1.03,-2.06 1.39,-3.07 2.11,-6.55 2.08,-10.27 -0.04,-4.97 -1.74,-9.68 -4.39,-13.47 -0.16,-0.23 -0.92,-1.28 -1.13,-1.49l-0.69 -0.82c-0.44,-0.46 -0.84,-0.9 -1.31,-1.33 -0.24,-0.21 -0.26,-0.31 -0.59,-0.55 -0.08,-0.06 -0.13,-0.11 -0.2,-0.18 -1.74,-1.54 -3.86,-2.87 -6.07,-3.87 -3.11,-1.4 -6.54,-2.1 -10.27,-2.08z"/>
   <path class="fil2" d="M33.62 1.67c-2.65,-0.09 -5.12,0.38 -7.56,1.12 -0.74,0.22 -1.44,0.52 -2.14,0.8 -0.39,0.16 -2.06,0.98 -2.43,1.21 -0.17,0.11 -0.31,0.18 -0.47,0.28 -0.97,0.61 -1.69,1.09 -2.6,1.81l-0.39 0.34c-0.08,0.07 -0.14,0.09 -0.22,0.16l-1.33 1.26c-0.23,0.19 -1.16,1.24 -1.41,1.55 -0.13,0.14 -0.24,0.28 -0.35,0.42 -0.86,1.09 -1.72,2.37 -2.37,3.6 -0.09,0.17 -0.15,0.34 -0.24,0.49 -0.09,0.17 -0.18,0.33 -0.26,0.51 -1.34,2.85 -2.27,6.32 -2.29,9.86 -0.01,2.93 0.32,4.87 1.13,7.55 0.23,0.78 0.85,2.35 1.25,3.12 0.08,0.15 0.16,0.32 0.24,0.48 0.48,1 1.32,2.3 1.97,3.19 0.6,0.83 1.49,1.88 2.22,2.59 0.06,0.07 0.11,0.14 0.17,0.2 0.06,0.06 0.12,0.11 0.19,0.17l0.97 0.9c1.51,1.37 3.54,2.65 5.42,3.56 4.61,2.24 10,2.81 15.14,1.76 1.45,-0.3 3.19,-0.84 4.41,-1.42 1.34,-0.62 1.59,-0.71 2.9,-1.49 0.15,-0.08 0.3,-0.18 0.45,-0.27 0.91,-0.56 1.53,-1.09 2.34,-1.7 0.09,-0.06 0.12,-0.12 0.2,-0.18 0.75,-0.59 1.41,-1.29 2.09,-1.97 0.07,-0.07 0.11,-0.13 0.18,-0.2 0.97,-0.98 2.2,-2.74 2.86,-3.87 3.06,-5.13 4.03,-11.07 2.8,-17.08 -0.16,-0.79 -0.38,-1.52 -0.6,-2.28 -0.71,-2.35 -2.06,-4.82 -3.47,-6.79 -0.1,-0.14 -0.21,-0.28 -0.31,-0.42l-0.67 -0.81c-0.36,-0.46 -0.83,-0.95 -1.24,-1.36l-0.55 -0.56c-0.5,-0.47 -1.07,-0.96 -1.6,-1.38 -1.5,-1.19 -2.85,-2.03 -4.61,-2.88 -3,-1.45 -6.14,-2.14 -9.82,-2.27z"/>
   <path class="fil1" d="M33.35 2.08c-2.61,-0.09 -5.99,0.59 -8.44,1.55l-1.52 0.64c-0.16,0.07 -0.3,0.15 -0.48,0.25 -0.32,0.16 -0.64,0.32 -0.95,0.48l-0.33 0.21c-0.05,0.02 -0.07,0.03 -0.12,0.06l-2.59 1.76 -2.48 2.24c-0.59,0.64 -1.35,1.51 -1.84,2.2l-1.33 1.95c-0.28,0.52 -0.69,1.17 -0.92,1.69 -0.07,0.17 -0.14,0.33 -0.23,0.5 -1.36,2.75 -2.16,6.6 -2.14,9.74 0.01,1.69 0.17,3.56 0.55,5.13 0.77,3.16 1.74,5.42 3.48,8.03 0.34,0.51 0.74,0.98 1.08,1.45l2.28 2.46c0.12,0.13 0.25,0.23 0.38,0.35 2,1.89 5.29,3.8 7.87,4.64 2.71,0.89 4.67,1.24 7.63,1.29 3.43,0.06 6.68,-0.78 9.44,-1.97 1.18,-0.5 2.7,-1.37 3.71,-2.06l2.25 -1.73c0.08,-0.07 0.1,-0.12 0.19,-0.19l1.48 -1.43c0.12,-0.12 0.22,-0.26 0.34,-0.39 0.14,-0.15 0.22,-0.24 0.35,-0.39 0.33,-0.36 0.66,-0.81 0.98,-1.21 0.11,-0.15 0.19,-0.29 0.3,-0.43 0.78,-1.06 1.56,-2.39 2.17,-3.72 2.04,-4.47 2.76,-9.89 1.59,-14.87 -0.74,-3.12 -1.77,-5.46 -3.48,-8.03 -0.09,-0.13 -0.19,-0.29 -0.3,-0.42l-1.43 -1.82c-0.1,-0.09 -0.11,-0.11 -0.19,-0.2l-0.87 -0.93c-0.06,-0.07 -0.13,-0.12 -0.2,-0.18 -0.07,-0.07 -0.1,-0.12 -0.17,-0.18 -0.88,-0.81 -1.64,-1.45 -2.61,-2.16 -1.04,-0.75 -2.54,-1.62 -3.73,-2.16 -2.22,-1.02 -4.47,-1.68 -6.95,-1.98 -0.95,-0.11 -1.82,-0.14 -2.77,-0.17z"/>
   <path class="fil3" d="M20.48 42.71c-0.01,-0.45 0.84,-0.88 1.53,-0.64 0.49,0.18 0.96,0.92 0.6,1.58 0.84,0.18 2.08,0.69 2.59,1.37l0.52 0.77c0.03,-0.75 -0.11,-1.66 -0.53,-2.02 -0.24,-0.2 -0.5,-0.32 -0.88,-0.44 -0.34,-0.11 -0.76,-0.15 -1.08,-0.25 0.59,-0.05 1.02,-0.18 1.41,-0.58 0.09,-0.09 0.24,-0.27 0.28,-0.43 -1.01,-0.33 -0.85,-0.32 -1.91,-0.09 0.26,-0.54 0.47,-0.88 0.37,-1.57 -0.21,-1.4 -2.33,-2.1 -2.75,-0.66 -0.07,0.2 -0.08,0.43 0,0.64 0.16,0.42 0.5,-0.11 0.73,-0.25 0.34,-0.21 0.56,-0.02 0.68,0.23 0.29,0.61 -0.27,1.09 -0.74,1.21 -1.25,0.3 -2.04,-1.19 -1.84,-2.33 0.27,-1.47 2.35,-2.09 4.11,-0.46 0.35,0.32 0.68,0.8 0.95,1.22 0.8,1.3 1.38,3 1.86,4.51 0.39,1.21 0.44,2.03 1.64,2.68 1.08,0.57 2.37,0.54 3.39,-0.1 0.46,-0.29 0.79,-0.64 1.16,-1.03l0.24 0.3c0.1,0.12 0.14,0.18 0.25,0.29 0.58,0.58 1.23,1.02 2.14,1.14 0.62,0.08 1.29,-0.05 1.79,-0.27 1.27,-0.55 1.36,-1.33 1.83,-2.51 0.31,-0.77 0.6,-1.55 0.99,-2.3 0.41,-0.8 0.85,-1.71 1.43,-2.4 0.09,-0.11 0.15,-0.2 0.24,-0.3 0.11,-0.11 0.17,-0.21 0.26,-0.29 0.34,-0.3 0.47,-0.43 0.89,-0.7 0.96,-0.61 2.42,-0.55 3.16,0.32 0.92,1.07 -0.07,3.44 -1.61,3.04 -0.47,-0.13 -1.02,-0.65 -0.73,-1.24 0.12,-0.25 0.37,-0.43 0.68,-0.25 0.27,0.17 0.32,0.46 0.63,0.5 0.34,-0.38 0.16,-1.15 -0.16,-1.4 -0.46,-0.37 -1.01,-0.33 -1.56,-0.08 -0.39,0.18 -0.78,0.55 -0.9,1.11 -0.16,0.71 0.03,1.11 0.26,1.63 -1,-0.32 -0.95,-0.31 -1.92,-0.05 0.08,0.29 0.34,0.61 0.57,0.77 0.32,0.21 0.61,0.28 1.05,0.35 -0.79,0.17 -1.43,0.16 -2,0.56 -0.52,0.36 -0.73,1.73 -0.67,1.98 0.2,-0.2 0.4,-0.63 0.78,-0.95 0.29,-0.24 0.64,-0.44 1.11,-0.61 0.85,-0.3 1.79,-0.45 2.66,-0.76 0.81,-0.29 1.61,-0.7 2.23,-1.23 0.63,-0.54 0.89,-1.54 0.78,-2.64 0.99,0.13 1.97,0.13 2.69,-0.6 0.82,-0.82 1.48,-2.22 1.86,-3.43 0.14,-0.44 0.28,-0.89 0.47,-1.31 0.47,-1.06 0.85,-1.24 1.68,-1.77 -0.23,-0.04 -0.9,0.03 -1.15,0.08 -1.34,0.29 -1.21,1.31 -1.56,2.4 -0.05,-0.38 -0.08,-0.73 -0.26,-1.03 -0.2,-0.3 -0.42,-0.48 -0.72,-0.64 -0.15,0.15 -0.28,0.63 -0.29,0.9 -0.02,0.28 0.11,0.73 0.17,0.99 -0.53,-0.26 -0.92,-0.47 -1.58,-0.37 -0.61,0.1 -0.94,0.41 -1.18,0.82 -0.85,1.4 0.53,2.41 1.34,1.83 -0.02,-0.31 -0.3,-0.39 -0.44,-0.65 -0.17,-0.32 0.01,-0.56 0.26,-0.67 0.6,-0.27 1.1,0.3 1.2,0.78 0.25,1.21 -1.19,2.06 -2.39,1.8 -1.22,-0.28 -1.59,-1.7 -1.22,-2.8 0.14,-0.43 0.51,-1.06 0.85,-1.32 0.2,-0.16 0.35,-0.33 0.57,-0.5 1.45,-1.1 3.4,-1.75 5.17,-2.31 1.43,-0.45 1.97,-0.42 2.64,-1.64 0.86,-1.56 0.27,-3.32 -0.98,-4.39 -0.06,-0.06 -0.09,-0.07 -0.15,-0.14 0.6,-0.46 1.37,-1.13 1.64,-2.22 0.29,-1.11 -0.09,-2.31 -0.64,-2.97 -0.44,-0.54 -1.93,-1.01 -2.6,-1.28 -0.92,-0.37 -1.82,-0.77 -2.68,-1.24 -0.63,-0.35 -1.19,-0.72 -1.72,-1.15 -0.97,-0.79 -1.7,-1.97 -1.37,-3.28 0.49,-1.93 2.8,-1.68 3.49,-0.54 0.44,0.71 0.17,1.04 0.02,1.48l0.14 -0.12c0.16,-0.18 0.41,-0.27 0.66,-0.31 0.25,-0.03 0.56,0.01 0.77,0.14 0.21,0.13 0.05,0.11 0.14,0.08 -0.04,-0.53 -0.87,-1.85 -1.2,-2.23 -0.7,-0.8 -1.67,-0.83 -2.65,-0.78 0.39,-2.33 -0.8,-3.17 -2.73,-4.07 -0.95,-0.44 -2.61,-0.74 -3.44,-1.41 -0.25,-0.21 -0.4,-0.42 -0.6,-0.69 -0.06,-0.08 -0.13,-0.16 -0.19,-0.26 -0.06,-0.1 -0.09,-0.19 -0.15,-0.27 -0.04,0.71 0.13,1.64 0.5,1.99 0.2,0.2 0.51,0.35 0.86,0.46 0.28,0.09 0.89,0.18 1.08,0.26 -0.39,0.12 -0.59,0.03 -1.02,0.3 -0.22,0.13 -0.52,0.4 -0.62,0.72 0.31,0.1 0.58,0.25 0.95,0.26 0.25,0 0.75,-0.1 0.95,-0.19 -0.02,0.1 -0.1,0.2 -0.16,0.31 -0.43,0.89 -0.25,1.93 0.59,2.46 0.69,0.44 1.69,0.37 1.96,-0.52 0.08,-0.26 0.07,-0.65 -0.1,-0.79 -0.16,-0.1 -0.48,0.31 -0.63,0.4 -0.81,0.46 -1.18,-1.16 0.06,-1.45 1.27,-0.29 2.02,1.22 1.84,2.31 -0.2,1.17 -1.48,1.7 -2.79,1.31 -2.24,-0.66 -3.49,-4.49 -4.14,-6.58 -0.42,-1.32 -0.43,-2 -1.66,-2.66 -1.07,-0.57 -2.34,-0.52 -3.36,0.11 -0.24,0.15 -0.42,0.28 -0.62,0.45l-0.41 0.42c-0.05,0.06 -0.06,0.09 -0.13,0.15 -0.23,-0.21 -0.4,-0.59 -1.07,-1.09 -0.91,-0.68 -2.29,-0.86 -3.35,-0.36 -1.32,0.63 -1.28,1.16 -1.84,2.5 -0.21,0.52 -0.41,1.04 -0.64,1.55 -0.55,1.22 -1.16,2.53 -2.01,3.46 -0.53,0.57 -1.04,1.1 -1.9,1.31 -1.33,0.31 -2.61,-0.28 -2.74,-1.47 -0.12,-1.1 0.7,-2.56 1.97,-2.2 1.24,0.34 0.76,1.94 0,1.46 -0.15,-0.1 -0.43,-0.55 -0.62,-0.46 -0.17,0.13 -0.22,0.49 -0.16,0.76 0.37,1.82 3.6,0.68 2.69,-1.71 -0.04,-0.11 -0.14,-0.23 -0.15,-0.33 0.43,0.19 0.99,0.3 1.46,0.18 0.14,-0.04 0.33,-0.07 0.45,-0.16 -0.17,-0.48 -0.57,-0.82 -1.02,-0.97 -0.16,-0.05 -0.44,-0.09 -0.55,-0.13 0.2,-0.07 0.79,-0.11 1.07,-0.18 0.39,-0.09 0.63,-0.19 0.89,-0.39 0.41,-0.3 0.69,-1.26 0.66,-1.96 -0.26,0.27 -0.47,0.69 -0.78,0.94 -1,0.82 -2.58,0.92 -3.77,1.38 -1.95,0.75 -3.26,1.51 -3.01,3.87 -2.34,-0.41 -3.19,0.84 -4.07,2.73 -0.38,0.81 -0.58,1.77 -0.95,2.6 -0.31,0.69 -0.6,1.05 -1.16,1.45 -0.14,0.09 -0.41,0.23 -0.52,0.34 0.71,0.05 1.62,-0.13 1.99,-0.51 0.58,-0.61 0.48,-1.38 0.71,-1.93 0.05,0.14 0.05,0.37 0.09,0.53 0.12,0.46 0.44,0.9 0.91,1.1 0.16,-0.16 0.27,-0.7 0.28,-0.92 0.02,-0.27 -0.1,-0.73 -0.17,-0.99 0.56,0.26 0.87,0.47 1.58,0.37 1.41,-0.2 2.08,-2.3 0.66,-2.75 -0.43,-0.14 -1.11,-0.02 -0.65,0.45 0.1,0.1 0.18,0.16 0.26,0.29 0.2,0.35 0.02,0.55 -0.23,0.67 -1.03,0.48 -1.89,-1.28 -0.56,-2.24 0.59,-0.42 1.81,-0.54 2.44,0.03 1.1,1.01 0.68,2.8 -0.32,3.75l-0.58 0.5c-0.91,0.75 -2.4,1.36 -3.58,1.78 -0.7,0.25 -2.72,0.85 -3.19,1.08 -0.55,0.27 -0.76,0.6 -1.05,1.11 -0.59,1.02 -0.51,2.4 0.1,3.37 0.2,0.31 0.61,0.79 0.88,1.02 0.06,0.06 0.09,0.06 0.15,0.14 -0.06,0.06 -0.08,0.06 -0.14,0.11 -0.8,0.56 -1.46,1.5 -1.58,2.51 -0.08,0.63 0.03,1.3 0.27,1.79 0.61,1.31 1.13,1.28 2.51,1.84 0.52,0.21 1.02,0.41 1.54,0.64 0.51,0.22 1,0.45 1.48,0.71 0.72,0.38 1.81,1.03 2.39,1.69l0.24 0.29c0.29,0.36 0.54,0.74 0.65,1.23 0.3,1.3 -0.23,2.52 -1.38,2.72 -1.22,0.21 -2.59,-0.74 -2.29,-1.93 0.32,-1.27 1.93,-0.8 1.48,-0.05 -0.15,0.25 -0.46,0.35 -0.49,0.64 0.81,0.62 2.2,-0.3 1.47,-1.75 -0.44,-0.85 -1.51,-1.15 -2.4,-0.78 -0.1,0.05 -0.27,0.14 -0.34,0.15 0.45,-1.01 0.17,-1.26 0.06,-1.91 -0.52,0.14 -0.83,0.56 -1,1.02 -0.07,0.18 -0.08,0.43 -0.14,0.57 -0.2,-0.68 -0.05,-1.31 -0.56,-1.98 -0.31,-0.41 -1.26,-0.68 -1.97,-0.66 0.34,0.27 0.71,0.5 0.95,0.78 0.82,1 0.92,2.61 1.37,3.77 0.78,2 1.47,3.2 3.88,3.01 -0.24,1.31 0.02,2.28 1,3.06 0.16,0.13 0.66,0.5 0.87,0.56z"/>
   <path class="fil3" d="M46.12 8.1c0,0.45 -0.85,0.88 -1.53,0.64 -0.5,-0.18 -0.97,-0.92 -0.6,-1.58 -0.85,-0.18 -2.09,-0.69 -2.59,-1.38l-0.52 -0.77c-0.03,0.76 0.11,1.66 0.53,2.02 0.24,0.21 0.49,0.33 0.87,0.45 0.35,0.11 0.77,0.15 1.08,0.25 -0.59,0.05 -1.02,0.18 -1.41,0.57 -0.09,0.1 -0.23,0.28 -0.28,0.44 1.01,0.33 0.85,0.31 1.92,0.09 -0.27,0.54 -0.48,0.88 -0.38,1.57 0.21,1.4 2.33,2.11 2.76,0.66 0.06,-0.2 0.07,-0.43 -0.01,-0.64 -0.16,-0.42 -0.5,0.11 -0.73,0.25 -0.34,0.21 -0.56,0.02 -0.68,-0.23 -0.28,-0.61 0.27,-1.09 0.74,-1.21 1.25,-0.3 2.04,1.19 1.83,2.33 -0.26,1.47 -2.34,2.09 -4.1,0.46 -0.35,-0.32 -0.68,-0.81 -0.94,-1.23 -0.81,-1.29 -1.38,-3 -1.87,-4.51 -0.39,-1.21 -0.43,-2.03 -1.63,-2.68 -1.08,-0.57 -2.37,-0.55 -3.39,0.1 -0.46,0.28 -0.79,0.63 -1.16,1.02l-0.25 -0.29c-0.09,-0.12 -0.13,-0.18 -0.24,-0.3 -0.58,-0.58 -1.23,-1.01 -2.14,-1.14 -0.62,-0.08 -1.29,0.06 -1.79,0.27 -1.27,0.55 -1.36,1.32 -1.84,2.51 -0.3,0.77 -0.59,1.55 -0.98,2.29 -0.42,0.81 -0.86,1.72 -1.44,2.41 -0.09,0.11 -0.14,0.19 -0.24,0.3 -0.11,0.11 -0.16,0.2 -0.26,0.28 -0.34,0.3 -0.47,0.44 -0.9,0.71 -0.95,0.6 -2.41,0.54 -3.15,-0.33 -0.91,-1.07 0.08,-3.44 1.61,-3.03 0.48,0.12 1.02,0.64 0.73,1.24 -0.12,0.25 -0.37,0.42 -0.68,0.24 -0.26,-0.16 -0.32,-0.46 -0.63,-0.5 -0.34,0.38 -0.16,1.15 0.16,1.4 0.47,0.38 1.01,0.33 1.56,0.08 0.39,-0.17 0.78,-0.55 0.9,-1.1 0.16,-0.72 -0.03,-1.11 -0.25,-1.63 0.99,0.31 0.95,0.3 1.91,0.05 -0.07,-0.29 -0.34,-0.61 -0.57,-0.77 -0.31,-0.22 -0.61,-0.29 -1.04,-0.36 0.78,-0.16 1.43,-0.16 2,-0.55 0.52,-0.36 0.73,-1.73 0.66,-1.98 -0.19,0.19 -0.39,0.63 -0.77,0.94 -0.3,0.25 -0.64,0.44 -1.11,0.61 -0.86,0.31 -1.79,0.46 -2.66,0.76 -0.81,0.29 -1.61,0.7 -2.23,1.23 -0.63,0.53 -0.9,1.54 -0.79,2.64 -0.99,-0.13 -1.97,-0.13 -2.69,0.59 -0.82,0.82 -1.48,2.22 -1.86,3.43 -0.14,0.44 -0.28,0.89 -0.47,1.31 -0.48,1.06 -0.85,1.24 -1.69,1.77 0.23,0.04 0.91,-0.03 1.15,-0.08 1.34,-0.29 1.21,-1.3 1.57,-2.39 0.05,0.37 0.07,0.72 0.26,1.02 0.19,0.3 0.41,0.49 0.72,0.65 0.14,-0.16 0.28,-0.64 0.29,-0.91 0.01,-0.28 -0.11,-0.73 -0.17,-0.99 0.53,0.27 0.91,0.47 1.58,0.37 0.61,-0.09 0.93,-0.4 1.18,-0.81 0.84,-1.4 -0.53,-2.41 -1.34,-1.83 0.01,0.3 0.29,0.39 0.43,0.64 0.18,0.32 0,0.56 -0.25,0.67 -0.61,0.27 -1.1,-0.29 -1.2,-0.77 -0.25,-1.22 1.19,-2.07 2.39,-1.8 1.22,0.28 1.59,1.7 1.22,2.8 -0.14,0.43 -0.52,1.06 -0.85,1.32 -0.21,0.16 -0.35,0.33 -0.58,0.5 -1.44,1.1 -3.4,1.74 -5.17,2.3 -1.43,0.45 -1.97,0.42 -2.64,1.64 -0.86,1.55 -0.27,3.32 0.97,4.39 0.06,0.06 0.09,0.07 0.16,0.14 -0.61,0.46 -1.37,1.13 -1.65,2.21 -0.29,1.12 0.09,2.32 0.63,2.98 0.45,0.54 1.93,1.01 2.61,1.28 0.91,0.37 1.81,0.77 2.67,1.25 0.63,0.34 1.19,0.71 1.73,1.15 0.96,0.79 1.69,1.97 1.36,3.28 -0.49,1.93 -2.81,1.67 -3.49,0.54 -0.44,-0.72 -0.17,-1.04 -0.02,-1.49l-0.14 0.12c-0.16,0.19 -0.41,0.28 -0.66,0.31 -0.25,0.03 -0.56,0 -0.77,-0.13 -0.21,-0.14 -0.05,-0.12 -0.15,-0.09 0.05,0.53 0.88,1.85 1.2,2.23 0.7,0.8 1.68,0.83 2.65,0.78 -0.39,2.34 0.8,3.17 2.73,4.08 0.95,0.45 2.61,0.74 3.44,1.42 0.25,0.21 0.4,0.41 0.6,0.69 0.06,0.08 0.12,0.16 0.18,0.26 0.07,0.1 0.1,0.18 0.16,0.26 0.04,-0.7 -0.13,-1.63 -0.5,-1.99 -0.2,-0.19 -0.51,-0.34 -0.86,-0.46 -0.28,-0.09 -0.89,-0.17 -1.08,-0.26 0.39,-0.12 0.59,-0.02 1.02,-0.29 0.22,-0.14 0.52,-0.41 0.62,-0.73 -0.31,-0.09 -0.58,-0.25 -0.95,-0.26 -0.25,0 -0.74,0.11 -0.95,0.19 0.02,-0.09 0.1,-0.19 0.16,-0.31 0.43,-0.88 0.25,-1.93 -0.58,-2.46 -0.7,-0.44 -1.69,-0.37 -1.97,0.52 -0.08,0.26 -0.06,0.65 0.1,0.79 0.17,0.1 0.48,-0.3 0.64,-0.4 0.81,-0.46 1.17,1.17 -0.06,1.44 -1.28,0.29 -2.03,-1.21 -1.84,-2.3 0.2,-1.17 1.48,-1.7 2.79,-1.31 2.23,0.67 3.48,4.5 4.13,6.58 0.41,1.33 0.43,2.01 1.65,2.66 1.07,0.58 2.34,0.53 3.37,-0.1 0.23,-0.14 0.42,-0.28 0.62,-0.45l0.41 -0.42c0.05,-0.06 0.06,-0.09 0.13,-0.15 0.23,0.22 0.4,0.59 1.06,1.09 0.92,0.69 2.3,0.87 3.35,0.37 1.33,-0.63 1.29,-1.16 1.84,-2.5 0.22,-0.52 0.41,-1.04 0.65,-1.55 0.55,-1.22 1.16,-2.52 2.02,-3.45 0.52,-0.57 1.03,-1.1 1.9,-1.31 1.33,-0.31 2.61,0.29 2.73,1.47 0.12,1.1 -0.7,2.56 -1.97,2.2 -1.23,-0.35 -0.76,-1.94 0,-1.46 0.16,0.1 0.43,0.55 0.63,0.46 0.17,-0.13 0.21,-0.49 0.16,-0.76 -0.38,-1.82 -3.61,-0.69 -2.7,1.7 0.05,0.12 0.14,0.24 0.15,0.33 -0.43,-0.19 -0.99,-0.29 -1.46,-0.17 -0.14,0.03 -0.33,0.06 -0.45,0.16 0.17,0.48 0.57,0.82 1.02,0.96 0.16,0.06 0.44,0.1 0.55,0.14 -0.2,0.07 -0.79,0.11 -1.07,0.17 -0.4,0.1 -0.63,0.2 -0.89,0.39 -0.41,0.3 -0.69,1.27 -0.67,1.97 0.27,-0.28 0.48,-0.7 0.79,-0.95 1,-0.82 2.58,-0.91 3.77,-1.37 1.95,-0.74 3.26,-1.5 3.01,-3.87 2.34,0.42 3.19,-0.84 4.08,-2.72 0.38,-0.81 0.58,-1.77 0.95,-2.6 0.31,-0.69 0.6,-1.05 1.16,-1.45 0.14,-0.09 0.41,-0.23 0.52,-0.33 -0.7,-0.06 -1.62,0.12 -1.99,0.5 -0.57,0.61 -0.48,1.38 -0.71,1.93 -0.05,-0.15 -0.05,-0.37 -0.09,-0.54 -0.12,-0.46 -0.44,-0.89 -0.9,-1.1 -0.17,0.17 -0.28,0.71 -0.29,0.92 -0.02,0.27 0.1,0.74 0.17,0.99 -0.56,-0.26 -0.87,-0.47 -1.58,-0.37 -1.41,0.2 -2.08,2.3 -0.66,2.75 0.43,0.14 1.11,0.03 0.64,-0.45 -0.09,-0.1 -0.17,-0.15 -0.25,-0.28 -0.2,-0.35 -0.02,-0.56 0.23,-0.67 1.03,-0.48 1.88,1.28 0.55,2.23 -0.59,0.42 -1.81,0.54 -2.43,-0.03 -1.11,-1.01 -0.68,-2.8 0.32,-3.75l0.58 -0.5c0.91,-0.75 2.4,-1.36 3.58,-1.77 0.71,-0.26 2.73,-0.85 3.19,-1.08 0.55,-0.27 0.77,-0.6 1.06,-1.11 0.58,-1.02 0.51,-2.4 -0.1,-3.36 -0.2,-0.31 -0.61,-0.8 -0.88,-1.03 -0.06,-0.05 -0.09,-0.06 -0.15,-0.14 0.06,-0.06 0.08,-0.06 0.15,-0.11 0.8,-0.55 1.45,-1.5 1.58,-2.51 0.08,-0.62 -0.04,-1.29 -0.27,-1.79 -0.61,-1.31 -1.14,-1.28 -2.51,-1.84 -0.52,-0.21 -1.02,-0.41 -1.54,-0.64 -0.51,-0.23 -1,-0.45 -1.47,-0.71 -0.73,-0.39 -1.82,-1.04 -2.39,-1.69l-0.25 -0.29c-0.29,-0.37 -0.54,-0.75 -0.65,-1.23 -0.3,-1.31 0.24,-2.53 1.39,-2.73 1.22,-0.21 2.59,0.75 2.29,1.94 -0.32,1.27 -1.94,0.8 -1.48,0.04 0.15,-0.24 0.46,-0.34 0.49,-0.64 -0.81,-0.62 -2.21,0.31 -1.47,1.75 0.43,0.85 1.5,1.15 2.4,0.78 0.1,-0.04 0.26,-0.13 0.33,-0.14 -0.45,1.01 -0.17,1.25 -0.06,1.9 0.52,-0.14 0.83,-0.55 1.01,-1.01 0.06,-0.18 0.08,-0.44 0.13,-0.58 0.2,0.69 0.05,1.32 0.56,1.99 0.31,0.41 1.25,0.68 1.97,0.66 -0.34,-0.27 -0.71,-0.5 -0.95,-0.78 -0.81,-1 -0.92,-2.61 -1.37,-3.77 -0.77,-2 -1.46,-3.21 -3.87,-3.02 0.24,-1.3 -0.01,-2.28 -0.99,-3.05 -0.17,-0.14 -0.67,-0.51 -0.87,-0.57z"/>
   <path class="fil1" d="M33.03 11.26c-2.78,-0.01 -5.74,1.06 -7.86,2.57 -0.17,0.12 -0.35,0.24 -0.51,0.37 -0.07,0.06 -0.16,0.13 -0.25,0.2 -0.48,0.38 -1.41,1.23 -1.79,1.73l-0.6 0.73c-0.63,0.81 -1.22,1.85 -1.66,2.82 -1.6,3.53 -1.61,8.14 0.09,11.62 0.46,0.93 0.99,1.92 1.65,2.72 0.13,0.15 0.25,0.34 0.4,0.49 0.26,0.26 0.4,0.49 0.85,0.92 0.92,0.86 1.24,1.19 2.47,1.96 3.97,2.5 9.12,2.83 13.39,0.84 0.81,-0.37 1.57,-0.82 2.2,-1.27l1 -0.77c0.17,-0.17 0.31,-0.27 0.47,-0.42 0.17,-0.15 0.28,-0.28 0.45,-0.44 0.08,-0.08 0.13,-0.11 0.2,-0.2l0.63 -0.71c0.26,-0.31 0.53,-0.66 0.77,-1.02 1.67,-2.5 2.52,-5.07 2.49,-8.29 -0.02,-2.17 -0.6,-4.31 -1.57,-6.2 -0.29,-0.57 -0.63,-1.11 -1,-1.64 -0.41,-0.59 -1.09,-1.42 -1.62,-1.91 -0.08,-0.08 -0.12,-0.14 -0.2,-0.21 -0.04,-0.04 -0.08,-0.06 -0.12,-0.11l-0.71 -0.62c-0.08,-0.07 -0.03,-0.03 -0.12,-0.1 -0.26,-0.18 -0.49,-0.38 -0.77,-0.57 -0.74,-0.47 -1.42,-0.9 -2.3,-1.28 -1.9,-0.84 -3.73,-1.2 -5.98,-1.21z"/>
   <path class="fil1" d="M28.05 7.3c-0.49,1.06 -0.58,1.59 -1.27,2.8 -0.26,0.45 -0.51,0.88 -0.82,1.23 -0.09,0.11 -0.13,0.18 -0.22,0.28l-0.65 0.63c-0.03,0.03 -0.03,0.03 -0.07,0.05l0.7 -0.37c0.75,-0.43 1.67,-0.86 2.52,-1.14 1.32,-0.43 2.54,-0.71 4.04,-0.81 0.1,-0.2 0.51,-0.81 0.71,-1.26 0.48,-1.1 0.73,-1.97 0.16,-3.16 -0.2,-0.42 -0.56,-0.78 -0.96,-1.01 -0.43,-0.25 -1.1,-0.38 -1.64,-0.29 -1.15,0.2 -1.72,1.3 -1.52,2.38 0.09,0.5 0.39,1.01 0.98,0.99 0.49,0 1.03,-0.47 0.9,-1.03 -0.08,-0.37 -0.81,-0.88 -0.64,-1.25 0.15,-0.35 1.01,-0.17 1.46,0.18 0.37,0.27 0.59,0.69 0.5,1.39 -0.32,2.51 -3.07,2.55 -3.88,1.05 -0.22,-0.41 -0.19,-0.44 -0.29,-0.64 0,-0.01 0,-0.02 -0.01,-0.02z"/>
   <path class="fil1" d="M26.8 43.1c0.03,-0.04 0,0.01 0.04,-0.07 0.02,-0.04 0.01,-0.03 0.03,-0.07 0.33,-0.76 0.87,-1.34 1.8,-1.39 1.11,-0.07 1.84,0.57 2.11,1.34 0.93,2.61 -1.97,2.88 -1.91,2.15 0,-0.1 0.07,-0.21 0.13,-0.28l0.14 -0.18c0.25,-0.31 0.73,-0.6 0.38,-1.23 -0.3,-0.56 -1.17,-0.71 -1.61,0 -0.42,0.66 -0.32,2 0.42,2.55 1.8,1.36 5.44,-0.54 3.08,-4.83 -0.05,-0.1 -0.08,-0.17 -0.14,-0.27 -0.08,-0.15 -0.12,-0.12 -0.29,-0.15 -0.68,-0.09 -1.56,-0.29 -2.2,-0.49 -0.94,-0.29 -1.7,-0.63 -2.52,-1.02 -0.4,-0.19 -0.77,-0.43 -1.13,-0.64l-1.06 -0.71c0.04,0.05 0.01,0.01 0.05,0.06 0.13,0.16 0.25,0.21 0.44,0.45 0.09,0.11 0.15,0.17 0.23,0.28 0.48,0.68 0.55,0.78 0.94,1.58 0.28,0.58 0.98,2.34 1.07,2.92z"/>
   <path class="fil1" d="M15.59 18.9c0.04,0.03 -0.02,0 0.07,0.05 0.36,0.19 0.78,0.33 1.09,0.79 0.3,0.45 0.45,0.89 0.34,1.56 -0.17,1.08 -1.03,1.69 -2.17,1.76 -0.67,0.04 -1.11,-0.23 -1.35,-0.6 -0.32,-0.47 -0.43,-1.34 -0.08,-1.47 0.38,-0.14 0.85,0.62 1.21,0.72 0.99,0.3 1.77,-1.47 0.17,-1.87 -0.61,-0.15 -1.19,-0.06 -1.64,0.21 -1.37,0.83 -1.12,3.03 0.27,3.82 1.45,0.84 2.81,0.3 4.16,-0.39 0.09,-0.05 0.22,-0.12 0.31,-0.16 0.19,-1.45 0.58,-2.71 1.08,-3.96 0.32,-0.78 0.85,-1.73 1.31,-2.43 0.17,-0.26 0.36,-0.5 0.52,-0.76l-0.65 0.61c-0.04,0.04 -0.09,0.07 -0.15,0.11 -0.12,0.1 -0.18,0.12 -0.29,0.21 -0.86,0.62 -3.24,1.63 -4.2,1.8z"/>
   <path class="fil1" d="M38.53 43.49c0.54,-1.36 1.29,-3.19 2.31,-4.32l0.78 -0.75 -0.8 0.47c-0.27,0.15 -0.55,0.3 -0.84,0.44 -1.65,0.81 -3.65,1.34 -5.5,1.47 -0.26,0.02 -0.24,0.1 -0.36,0.3 -0.62,0.99 -1.41,2.58 -0.78,3.93 0.26,0.58 0.63,1.05 1.25,1.31 0.86,0.36 1.8,0.3 2.45,-0.33 0.94,-0.91 0.62,-3.1 -0.64,-2.83 -0.29,0.07 -0.58,0.29 -0.69,0.57 -0.33,0.79 1.02,1.35 0.55,1.77 -0.24,0.21 -0.8,0.07 -1.08,-0.04 -1.36,-0.56 -0.95,-2.57 0.14,-3.33 0.53,-0.37 1.42,-0.45 2.08,-0.12 0.46,0.23 0.73,0.57 0.94,1l0.19 0.46z"/>
   <path class="fil1" d="M45.7 34.61c0.46,-0.3 0.41,-0.68 2.37,-1.65 0.44,-0.22 0.94,-0.43 1.41,-0.59 0.3,-0.1 1.27,-0.45 1.51,-0.49 0,0 -0.02,-0.02 -0.02,-0.01 0,0.01 -0.02,-0.01 -0.02,-0.01l-0.18 -0.09c-0.08,-0.03 -0.14,-0.06 -0.22,-0.11 -0.16,-0.09 -0.25,-0.15 -0.38,-0.26 -0.21,-0.18 -0.43,-0.4 -0.56,-0.73 -0.28,-0.7 -0.17,-1.54 0.24,-2.07 0.83,-1.08 2.91,-1.29 3.34,0.05 0.25,0.78 0.14,1.71 -0.8,0.78 -0.26,-0.25 -0.5,-0.46 -0.91,-0.36 -0.84,0.2 -1.19,1.75 0.58,1.93 1.73,0.17 2.54,-1.38 2.05,-2.81 -0.21,-0.64 -0.65,-1.09 -1.21,-1.38 -1.36,-0.69 -2.9,-0.09 -3.98,0.49 -0.43,0.24 -0.28,0.07 -0.42,0.86 -0.29,1.61 -0.94,3.46 -1.76,4.85 -0.17,0.28 -0.33,0.58 -0.5,0.81l-0.54 0.79z"/>
   <path class="fil1" d="M15.18 30.64c0.49,0.1 2.34,0.97 2.82,1.26 0.6,0.36 1.01,0.61 1.51,1.05l0.51 0.51c0.04,0.05 0.06,0.08 0.11,0.13l0.1 0.1c0,0.01 0.01,0.02 0.02,0.02 0,0.01 0.01,0.01 0.02,0.02 -0.04,-0.09 -0.08,-0.14 -0.13,-0.21l-0.34 -0.59c-0.16,-0.27 -0.31,-0.56 -0.45,-0.85 -0.81,-1.65 -1.33,-3.62 -1.47,-5.49 -0.02,-0.27 -0.1,-0.24 -0.3,-0.36 -1.05,-0.66 -2.5,-1.38 -3.92,-0.79 -0.58,0.24 -1.06,0.66 -1.32,1.25 -0.3,0.69 -0.3,1.52 0.05,2.11 0.6,0.99 2.09,1.09 2.75,0.62 0.95,-0.68 -0.06,-2.35 -1.14,-1.34 -0.16,0.15 -0.62,0.51 -0.84,0.28 -0.21,-0.22 -0.07,-0.81 0.04,-1.07 0.58,-1.43 2.7,-0.86 3.33,0.13 0.55,0.86 0.45,2.07 -0.48,2.79 -0.31,0.24 -0.58,0.29 -0.85,0.42 0,0 -0.02,0 -0.02,0.01z"/>
   <path class="fil1" d="M51.4 20.14c-0.37,-0.08 -1.07,-0.41 -1.45,-0.57 -1.35,-0.59 -2.1,-1.05 -3.14,-1.98 -0.1,-0.08 -0.17,-0.16 -0.25,-0.26 -0.07,-0.08 -0.16,-0.2 -0.24,-0.27l0.47 0.8c0.16,0.29 0.29,0.54 0.44,0.85 0.5,0.99 1.06,2.67 1.24,3.8 0.1,0.56 0.19,1.08 0.22,1.66 0.02,0.3 0.1,0.25 0.29,0.38 0.54,0.33 1.11,0.65 1.74,0.85 1.39,0.44 2.93,0.01 3.52,-1.33 0.31,-0.69 0.28,-1.53 -0.07,-2.1 -0.13,-0.23 -0.39,-0.48 -0.65,-0.62 -0.6,-0.33 -1.63,-0.36 -2.09,0.03 -0.69,0.59 -0.31,1.39 0.24,1.61 0.74,0.28 1.37,-1.04 1.77,-0.55 0.2,0.25 0.04,0.81 -0.07,1.08 -0.13,0.3 -0.37,0.53 -0.61,0.67 -0.72,0.42 -2.18,0.02 -2.72,-0.84 -0.54,-0.86 -0.4,-2.17 0.49,-2.77 0.56,-0.37 0.42,-0.22 0.8,-0.4 0.07,-0.03 0.03,-0.01 0.07,-0.04z"/>
   <path class="fil1" d="M42.51 12.98l-0.24 -0.25c-0.1,-0.09 -0.17,-0.16 -0.25,-0.26 -0.4,-0.5 -0.52,-0.66 -0.82,-1.2 -0.35,-0.61 -0.69,-1.4 -0.93,-2.07 -0.12,-0.33 -0.45,-1.2 -0.49,-1.51 -0.13,0.15 -0.34,1.02 -1.22,1.38 -1.24,0.51 -2.76,-0.18 -2.92,-1.9 -0.04,-0.42 -0.03,-0.76 0.17,-1.08 0.56,-0.91 2.25,-0.94 1.83,-0.18 -0.27,0.51 -0.82,0.66 -0.69,1.27 0.07,0.31 0.34,0.57 0.63,0.67 0.41,0.14 0.72,-0.02 0.94,-0.24 0.48,-0.46 0.67,-2.02 -0.35,-2.79 -0.55,-0.42 -1.36,-0.49 -2.07,-0.26 -0.63,0.21 -1.1,0.66 -1.38,1.21 -0.7,1.34 -0.11,2.94 0.49,4.01 0.1,0.18 0.07,0.28 0.31,0.32 2.19,0.34 4.39,1.1 6.2,2.34l0.79 0.54z"/>
   <path class="fil3" d="M25.05 35.89c0.08,0.11 1.38,1.1 1.51,1.15 0.09,-0.14 0.27,-0.25 0.35,-0.39 0.13,-0.27 0.03,-0.41 0.21,-0.56 0.41,-0.32 1.89,-1.74 2.32,-2.15l1.14 -1.07c0.12,-0.1 0.51,-0.03 0.68,-0.04 0.21,-0.02 0.32,-0.2 0.43,-0.31 0.22,-0.2 1.12,-1.01 1.18,-1.12l-0.79 -0.83c-0.14,-0.15 -0.66,-0.75 -0.78,-0.82 -0.14,0.06 -0.95,0.86 -1.19,1.08 -0.37,0.33 -0.31,0.27 -0.35,0.85 -0.02,0.32 -0.06,0.24 -0.5,0.66l-3.21 3c-0.27,0.25 -0.6,0.01 -1,0.55z"/>
   <path class="fil4" d="M37.64 27.39c0.06,0.11 0.6,0.66 0.73,0.8 0.13,0.14 0.24,0.26 0.37,0.4 0.35,0.37 0.17,0.29 0.87,0.33 0.27,0.02 0.28,0.12 0.64,0.52l2.99 3.19c0.24,0.27 0,0.56 0.55,1 0,0 0.01,-0.02 0.02,-0.01l0.13 -0.16c0.07,-0.07 0.08,-0.09 0.14,-0.18l0.85 -1.12c-0.05,-0.09 -0.1,-0.1 -0.23,-0.25 -0.29,-0.33 -0.46,-0.1 -0.73,-0.36 0,0 -0.01,-0.01 -0.01,-0.02l-0.22 -0.23c-0.38,-0.46 -1.75,-1.9 -2.26,-2.42 -0.1,-0.11 -0.18,-0.2 -0.26,-0.28l-0.5 -0.53c0.02,-0.97 0.08,-0.68 -0.95,-1.79 -0.12,-0.12 -0.34,-0.4 -0.48,-0.47 -0.11,0.14 -0.26,0.26 -0.4,0.39 -0.25,0.23 -1.16,1.05 -1.25,1.19z"/>
   <path class="fil3" d="M37.77 23.66c0.04,0.16 0.2,0.29 0.37,0.46 0.14,0.15 0.26,0.28 0.4,0.43 0.18,0.19 0.66,0.66 0.77,0.84 0.18,-0.09 0.76,-0.69 0.96,-0.89 0.17,-0.15 0.33,-0.28 0.48,-0.44 0.17,-0.16 0.1,-0.59 0.15,-0.82 0.09,-0.1 0.18,-0.15 0.27,-0.24l2.93 -2.74c0.1,-0.08 0.17,-0.15 0.26,-0.24 0.26,-0.25 0.46,-0.08 0.72,-0.29 0.1,-0.09 0.18,-0.18 0.3,-0.24 -0.05,-0.16 -0.17,-0.31 -0.25,-0.42l-0.52 -0.78c-0.04,-0.07 -0.07,-0.1 -0.12,-0.18l-0.1 -0.16c-0.04,-0.04 -0.02,-0.02 -0.06,-0.05 -0.66,0.48 -0.33,0.69 -0.6,0.95 -0.27,0.25 -0.53,0.49 -0.8,0.74 -0.54,0.51 -1.06,0.98 -1.59,1.49l-1.19 1.09c-0.19,0.19 -0.16,0.14 -0.63,0.14 -0.41,-0.01 -0.52,0.23 -0.93,0.61 -0.18,0.17 -0.66,0.65 -0.82,0.74z"/>
   <path class="fil3" d="M33.29 31.41c0.06,0.14 0.58,0.65 0.71,0.8 0.13,0.13 0.62,0.71 0.75,0.73 0.61,0.13 0.5,-0.17 0.88,0.26l2.89 3.1c0.45,0.42 0.18,0.34 0.36,0.76 0.04,0.09 0.27,0.35 0.36,0.42l1.49 -0.99c0.04,-0.04 0.02,-0.02 0.05,-0.05 -0.38,-0.58 -0.71,-0.36 -0.94,-0.6 -1.1,-1.16 -2.26,-2.49 -3.35,-3.59 -0.09,-0.09 -0.11,-0.09 -0.12,-0.25 -0.02,-0.85 0.16,-0.49 -0.63,-1.32 -0.15,-0.17 -0.63,-0.72 -0.77,-0.81 -0.15,0.09 -0.67,0.61 -0.84,0.77l-0.84 0.77z"/>
   <path class="fil4" d="M21.64 18.67c0.28,0.17 0.2,0.32 0.61,0.41 0.39,0.09 0.24,0.07 0.62,0.44 0.15,0.16 0.34,0.4 0.48,0.53 0.36,0.34 1.15,1.23 1.5,1.61l1 1.06c0.04,0.23 -0.07,0.65 0.06,0.82 0.13,0.15 0.31,0.32 0.45,0.47 0.3,0.32 0.58,0.65 0.89,0.96 0.11,-0.06 0.33,-0.29 0.42,-0.37 0.15,-0.14 0.28,-0.26 0.43,-0.4 0.15,-0.14 0.28,-0.26 0.43,-0.4 0.12,-0.12 0.35,-0.28 0.41,-0.44 -0.14,-0.1 -0.9,-0.94 -1.11,-1.17 -0.07,-0.08 -0.12,-0.13 -0.19,-0.2 -0.22,-0.25 -0.69,0.03 -0.95,-0.25l-1.13 -1.21c-0.5,-0.53 -0.98,-1.05 -1.48,-1.59 -0.26,-0.28 -0.49,-0.52 -0.75,-0.8 -0.18,-0.19 -0.06,-0.76 -0.58,-1 -0.04,0.11 -0.05,0.11 -0.13,0.21 -0.2,0.24 -0.93,1.17 -0.98,1.32z"/>
   <path class="fil3" d="M25.8 14.35c0.41,0.58 0.7,0.35 0.94,0.6 0.26,0.27 0.5,0.53 0.75,0.81l2.23 2.39c0.56,0.61 0.49,0.37 0.48,1.05 0,0.34 0.08,0.31 0.25,0.5l1.08 1.15c0.07,0.07 0.01,0.03 0.08,0.06 0.25,-0.18 0.6,-0.56 0.85,-0.78 0.09,-0.09 0.75,-0.67 0.82,-0.79l-1.07 -1.15c-0.1,-0.11 -0.24,-0.33 -0.4,-0.35 -0.74,-0.12 -0.46,0.16 -0.87,-0.27l-2.71 -2.9c-0.08,-0.08 -0.11,-0.12 -0.18,-0.2 -0.09,-0.09 -0.22,-0.19 -0.26,-0.31 -0.03,-0.12 -0.01,-0.3 -0.1,-0.46 -0.02,-0.04 -0.28,-0.34 -0.35,-0.39l-0.78 0.51c-0.08,0.05 -0.7,0.45 -0.76,0.53z"/>
   <path class="fil3" d="M33.72 19.35c0.07,0.17 1.48,1.63 1.56,1.68l1.19 -1.1c0.28,-0.25 0.31,-0.22 0.33,-0.47 0,-0.13 0.01,-0.26 0.02,-0.38 0.01,-0.19 0,-0.18 0.1,-0.27l3.61 -3.36c0.26,-0.25 0.51,0.03 1,-0.55 -0.09,-0.15 -1.29,-0.99 -1.46,-1.15 -0.69,0.53 -0.35,0.64 -0.57,0.92 -0.07,0.09 -0.28,0.26 -0.38,0.35l-3.09 2.89c-0.14,0.1 -0.49,0.04 -0.71,0.05 -0.19,0 -0.19,0.07 -0.43,0.28l-1.17 1.11z"/>
   <path class="fil4" d="M21.21 31.35l0.99 1.48c0.06,0.06 0.01,0.01 0.05,0.05 0.11,-0.11 0.32,-0.25 0.38,-0.38 0.11,-0.23 0.05,-0.4 0.22,-0.56l3.19 -2.98c0.63,-0.59 0.38,-0.49 1.06,-0.48 0.28,0 0.21,0 0.49,-0.26 0.15,-0.14 0.26,-0.25 0.41,-0.38l0.8 -0.76c-0.04,-0.08 -1.4,-1.58 -1.57,-1.68l-1.15 1.07c-0.11,0.1 -0.32,0.24 -0.35,0.41 -0.11,0.75 0.21,0.45 -0.45,1.06l-2.31 2.16c-0.26,0.23 -0.51,0.49 -0.77,0.72 -0.31,0.26 -0.3,-0.19 -0.99,0.53z"/>
   <path class="fil3" d="M23.24 33.51c0.13,0.25 1.05,1.07 1.22,1.35 0.1,-0.04 0.32,-0.24 0.39,-0.35 0.11,-0.15 0.1,-0.44 0.2,-0.57l3.1 -2.89c0.67,-0.61 0.29,-0.35 1.09,-0.4 0.21,-0.01 0.66,-0.51 0.83,-0.66 0.16,-0.16 0.69,-0.61 0.77,-0.76 -0.09,-0.07 -1.5,-1.59 -1.55,-1.66 -0.14,0.05 -0.98,0.88 -1.17,1.05 -0.18,0.18 -0.33,0.26 -0.36,0.42 -0.15,0.89 0.14,0.49 -0.45,1.05 -0.26,0.26 -0.52,0.48 -0.78,0.74l-2.31 2.15c-0.27,0.24 -0.43,-0.11 -0.98,0.53z"/>
   <path class="fil3" d="M35.73 21.56c0.11,0.08 1.5,1.57 1.56,1.66 0.15,-0.08 0.27,-0.22 0.4,-0.34l0.77 -0.72c0.11,-0.11 0.32,-0.24 0.35,-0.41 0.03,-0.17 0.01,-0.54 0.07,-0.68l3.49 -3.29c0.14,-0.11 0.39,-0.06 0.58,-0.16 0.13,-0.06 0.34,-0.26 0.39,-0.38 -0.26,-0.2 -1.06,-1.19 -1.25,-1.31 -0.67,0.49 -0.35,0.69 -0.58,0.93l-0.78 0.71c-0.74,0.67 -1.59,1.54 -2.32,2.17 -0.1,0.09 -0.29,0.3 -0.38,0.36 -0.15,0.1 -0.5,0.03 -0.69,0.03 -0.2,0.01 -0.19,0.07 -0.44,0.3l-0.98 0.92c-0.09,0.08 -0.13,0.1 -0.19,0.21z"/>
   <path class="fil3" d="M23.82 16.56c0.05,0.11 0.24,0.33 0.35,0.4 0.15,0.1 0.45,0.09 0.57,0.2l2.89 3.1c0.49,0.54 0.36,0.19 0.4,1.09 0.01,0.19 0.1,0.21 0.3,0.43 0.13,0.14 0.24,0.26 0.37,0.39 0.17,0.19 0.57,0.67 0.75,0.78 0.06,-0.09 1.53,-1.46 1.66,-1.56 -0.06,-0.14 -0.99,-1.09 -1.23,-1.36 -0.09,-0.09 -0.1,-0.14 -0.23,-0.16 -0.9,-0.15 -0.5,0.14 -1.06,-0.45 -0.25,-0.26 -0.49,-0.52 -0.73,-0.78l-2.16 -2.31c-0.26,-0.28 0.13,-0.38 -0.53,-0.99 -0.06,0.03 -0.03,0.02 -0.09,0.07l-0.58 0.53c-0.16,0.15 -0.52,0.52 -0.68,0.62z"/>
   <path class="fil3" d="M35.46 29.39c0.08,0.16 0.22,0.27 0.35,0.4 0.13,0.14 0.23,0.26 0.36,0.39 0.14,0.16 0.6,0.71 0.76,0.74 1.04,0.17 0.36,-0.28 1.8,1.23 0.49,0.52 0.94,1.02 1.43,1.54 0.25,0.27 0.48,0.5 0.72,0.77 0.25,0.28 -0.13,0.38 0.53,0.99l1.35 -1.25c-0.09,-0.12 -0.24,-0.3 -0.37,-0.38 -0.2,-0.13 -0.42,-0.07 -0.56,-0.21l-2.17 -2.33c-0.25,-0.26 -0.48,-0.5 -0.72,-0.77 -0.49,-0.52 -0.35,-0.2 -0.39,-1.07 -0.01,-0.2 -0.07,-0.19 -0.3,-0.43 -0.12,-0.14 -0.24,-0.26 -0.37,-0.39l-0.63 -0.69c-0.08,-0.08 -0.04,-0.05 -0.13,-0.09 -0.05,0.07 -1.54,1.47 -1.66,1.55z"/>
   <path class="fil4" d="M29.66 23.21c0.21,0.19 1.42,1.57 1.6,1.68 0.11,-0.16 0.26,-0.26 0.4,-0.39 0.04,-0.04 0.05,-0.06 0.09,-0.1l1.07 -0.99c0,0 0.04,-0.04 0.04,-0.05l0.07 -0.08 -1.57 -1.66c-0.13,0.08 -1.6,1.45 -1.7,1.59z"/>
   <path class="fil4" d="M33.66 27.45c0.07,0.17 1.01,1.13 1.17,1.29 0.13,0.14 0.26,0.3 0.39,0.42l1.7 -1.57 -1.46 -1.58c-0.03,-0.03 -0.03,-0.03 -0.05,-0.05 -0.07,-0.05 -0.01,-0.02 -0.09,-0.06l-1.66 1.55z"/>
   <path class="fil4" d="M33.8 23.36l1.56 1.66 1.7 -1.56c-0.16,-0.22 -1.51,-1.64 -1.59,-1.7 -0.17,0.17 -1.59,1.45 -1.67,1.6z"/>
   <path class="fil4" d="M35.87 25.48l1.54 1.68c0.15,-0.07 0.69,-0.62 0.85,-0.77 0.28,-0.26 0.6,-0.52 0.86,-0.79l-0.78 -0.84c-0.15,-0.17 -0.66,-0.77 -0.83,-0.85 -0.2,0.28 -1.51,1.34 -1.64,1.57z"/>
   <path class="fil4" d="M29.52 27.32l1.58 1.7 1.57 -1.46c0.03,-0.03 0.03,-0.03 0.05,-0.05 0.07,-0.08 0.02,-0.01 0.06,-0.09l-1.56 -1.66c-0.09,0.04 -0.04,0.02 -0.12,0.08 -0.46,0.39 -1.11,1.1 -1.58,1.48z"/>
   <path class="fil4" d="M31.51 29.5c0.04,0.08 1.38,1.56 1.58,1.72l1.69 -1.6c-0.33,-0.24 -1.29,-1.45 -1.58,-1.65 -0.23,0.12 -1.43,1.37 -1.69,1.53z"/>
   <path class="fil4" d="M27.46 25.19c0.17,0.23 1.53,1.65 1.6,1.68 0.08,-0.13 0.27,-0.29 0.4,-0.39l1.24 -1.18c-0.3,-0.39 -1.4,-1.49 -1.52,-1.68 -0.17,0.06 -0.71,0.62 -0.87,0.77 -0.15,0.14 -0.28,0.26 -0.43,0.4 -0.14,0.13 -0.31,0.25 -0.42,0.4z"/>
   <path class="fil4" d="M31.66 25.33l1.57 1.7c0.16,-0.12 0.28,-0.26 0.43,-0.39l1.25 -1.19 -1.56 -1.69 -1.69 1.57z"/>
   <path class="fil4" d="M31.8 21.17c0.28,0.19 1.33,1.49 1.58,1.64l1.67 -1.57 -1.56 -1.68 -0.84 0.78c-0.17,0.16 -0.76,0.65 -0.85,0.83z"/>
   <path class="fil1" d="M21.61 12.87c0.25,1.53 0.14,1.76 -0.52,3.02 0.04,-0.04 0,0 0.05,-0.06 0.01,0 0.05,-0.05 0.05,-0.05l0.79 -0.93c0.23,-0.23 0.78,-0.78 0.99,-0.95 0.24,-0.18 0.32,-0.31 0.7,-0.59 0.17,-0.14 0.31,-0.26 0.48,-0.37 0.11,-0.07 0.42,-0.3 0.5,-0.37 -0.21,0.08 -0.4,0.2 -0.63,0.29 -0.76,0.3 -1.66,0.24 -2.41,0.01z"/>
   <path class="fil1" d="M46.1 16.71c-0.06,-0.13 -0.14,-0.25 -0.2,-0.39 -0.19,-0.45 -0.31,-0.97 -0.29,-1.47 0.02,-0.48 0.09,-0.7 0.2,-1.14 -1.41,0.23 -1.77,0.17 -2.96,-0.49 0.04,0.06 0.02,0.04 0.09,0.11 0.04,0.03 0.07,0.04 0.13,0.09l0.68 0.6c0.29,0.23 1.21,1.21 1.42,1.49l0.93 1.2z"/>
   <path class="fil1" d="M20.77 37.07c0.81,-0.18 1.57,-0.17 2.36,0.16 0.26,0.11 0.41,0.24 0.61,0.34 -0.04,-0.05 -1.13,-0.97 -1.33,-1.2l-0.81 -0.87c-0.32,-0.31 -0.78,-1.03 -1.05,-1.35 -0.04,-0.05 -0.03,-0.04 -0.07,-0.07 0.1,0.22 0.21,0.38 0.29,0.64 0.26,0.84 0.27,1.44 0,2.35z"/>
   <path class="fil1" d="M41.97 38.2c0.35,-0.12 0.58,-0.38 1.37,-0.46 0.6,-0.07 1.08,0.02 1.63,0.17 -0.17,-0.81 -0.18,-1.47 0.12,-2.26 0.09,-0.24 0.23,-0.42 0.31,-0.62l-0.2 0.21c-0.07,0.08 -0.12,0.13 -0.19,0.22l-0.59 0.65c-0.07,0.08 -0.12,0.15 -0.19,0.22l-0.86 0.79c-0.08,0.06 -0.16,0.11 -0.23,0.18l-1.17 0.9z"/>
   <path class="fil5" d="M4.34 39.16c18.91,-4.06 39.27,-4.34 62.79,-0.67l-8.89 -27.93c-24.5,-3.47 -42.45,7.44 -58.24,20.44 0.99,2.25 3.34,5.91 4.34,8.16z"/>
   <g>
    <path class="fil6" d="M49.07 29.5l10.05 0.97 0.08 0.03c3.12,1.28 4.93,2.31 6.91,5.1l0.62 0.87 -18 -0.39 2.43 -0.98c3.23,-1.32 1.24,-2.83 -0.75,-4.49l-1.34 -1.11z"/>
   </g>
   <path class="fil7" d="M50.75 30.2c3.03,2.52 3.86,4.08 0.62,5.4l14.3 0.31c-1.78,-2.52 -3.32,-3.54 -6.67,-4.91l-8.25 -0.8z"/>
   <g>
    <path class="fil8" d="M7.36 29.74c8.09,-4.84 19.12,-7.82 28.4,-9.55 4.55,-0.85 16.6,-2.76 21.03,-1.6 5.97,1.55 5.5,14.09 2.04,12.89 -1.29,-0.41 -5.23,-0.56 -6.63,-0.66 -4.64,-0.3 -9.3,-0.5 -13.95,-0.61 -9.45,-0.23 -21.04,-0.41 -30.23,1.28l-5.19 0.96 4.53 -2.71z"/>
   </g>
   <path class="fil9" d="M7.85 30.55c15.15,-9.06 43.52,-12.39 48.7,-11.04 5.05,1.31 4.2,11.63 2.63,11.09 -0.75,-0.65 -35.98,-2.87 -51.33,-0.05z"/>
   <g>
    <path class="fil10" d="M2.48 30.68c8.39,-7 12.36,-10.82 23.05,-14.92l0.3 -0.11 0.3 0.11c2.77,1.02 4.88,2.27 7.36,3.85l0.64 0.41 -0.67 1.36 -0.72 -0.26c-1.55,-0.56 -2.85,-1.05 -4.52,-1.2 -0.11,-0.01 -0.5,-0.05 -0.59,0.1l0.02 0.08 0 0.1c0.03,0.12 0.28,0.4 0.39,0.5l1.41 1.05 -1.74 0.43c-9.68,2.37 -15.71,4.89 -24.26,9.88l-0.67 0.4 -0.9 -1.28 0.6 -0.5z"/>
   </g>
   <path class="fil11" d="M3.02 31.33c7.67,-6.4 11.26,-10.35 22.82,-14.78 2.73,1.01 4.32,1.95 7.19,3.78 -1.91,-0.69 -2.99,-1.1 -4.74,-1.25 -1.74,-0.16 -1.49,1.11 -1.49,1.11 -0.02,0.53 0.7,1.17 0.7,1.17 -10.57,2.59 -15.82,4.91 -24.48,9.97z"/>
   <g>
    <path class="fil12" d="M46.46 16.93c-3.67,-0.67 -6.02,-0.11 -9.63,0.76l-0.76 0.18 -0.49 -1.46 0.71 -0.31c7.73,-3.39 13.51,-3.89 21.97,-4.28l1.06 -0.05 -0.19 1.04c-0.45,2.5 -0.94,4.03 -2.55,5.99l-0.24 0.29 -9.53 0.4 0.03 -0.91c0.02,-0.54 0.15,-1.37 -0.38,-1.65z"/>
   </g>
   <path class="fil13" d="M36.63 16.87c6.38,-2.79 10.46,-3.7 21.67,-4.21 -0.5,2.73 -1.02,3.96 -2.37,5.6l-8.25 0.35c0.06,-1.6 -0.15,-2.16 -0.96,-2.49 -3.67,-0.69 -5.79,-0.28 -10.09,0.75z"/>
   <g>
    <path class="fil14" d="M15.68 33.17c-2.13,3.63 -9.64,3.38 -9.93,0.03l-0.04 -0.52 10.44 -0.31 -0.47 0.8z"/>
   </g>
   <path class="fil15" d="M15.25 32.9c-2.1,3.57 -8.78,2.75 -8.99,0.27l8.99 -0.27z"/>
   <g>
    <path class="fil16" d="M23.82 32.88c-0.99,3.04 -8.45,4 -8.92,0.06l-0.05 -0.38 9.13 -0.16 -0.16 0.48z"/>
   </g>
   <path class="fil17" d="M23.48 32.76c-0.88,2.72 -7.81,3.67 -8.23,0.14l8.23 -0.14z"/>
   <g>
    <path class="fil18" d="M31.57 32.76c-0.3,3.07 -7.47,4.84 -8.27,0.04l-0.05 -0.3 8.35 -0.03 -0.03 0.29z"/>
   </g>
   <path class="fil19" d="M31.31 32.73c-0.27,2.73 -7,4.56 -7.76,0.03l7.76 -0.03z"/>
   <g>
    <path class="fil20" d="M42.27 32.95c-0.67,3.51 -11.01,3.44 -11.28,-0.24l-0.03 -0.35 11.38 0.21 -0.07 0.38z"/>
   </g>
   <path class="fil21" d="M41.95 32.89c-0.6,3.14 -10.4,3.08 -10.64,-0.2l10.64 0.2z"/>
   <g>
    <path class="fil22" d="M50.9 33.88c-2.02,2.92 -9.5,3.12 -9.67,-1.06l-0.03 -0.77 10.39 0.84 -0.69 0.99z"/>
   </g>
   <path class="fil23" d="M50.33 33.48c-1.75,2.53 -8.27,2.63 -8.41,-0.68l8.41 0.68z"/>
   <g>
    <path class="fil24" d="M1.76 33.59c0.02,-0.01 0.03,-0.01 0.05,-0.02 9.55,-2.84 21.14,-3.87 31.16,-3.99 2.55,-0.03 17.32,-0.03 18.87,2.16l0.03 0.04 0.01 0.05c0.36,0.93 -0.36,2.87 -1.48,2.6 -3.43,-0.84 -8,-0.96 -11.51,-1.06 -5.3,-0.16 -10.62,-0.11 -15.91,0.01 -4.77,0.11 -9.54,0.29 -14.3,0.53 -1.56,0.08 -3.12,0.16 -4.68,0.27 -0.51,0.04 -1.45,0.06 -1.95,0.16l-0.03 0.01 -0.35 0.11 -0.01 -0.02 -0.02 0 -0.04 -0.14 -0.22 -0.54 0.06 -0.02 -0.01 -0.05 0.33 -0.1z"/>
   </g>
   <path class="fil25" d="M1.9 33.97c18.45,-5.51 47.88,-4.45 49.61,-2 0.31,0.8 -0.39,2.23 -1.03,2.07 -10,-2.44 -47.96,-0.34 -48.58,-0.07z"/>
   <path class="fil26" d="M3.02 31.33c13.33,-9.57 23.81,-13.75 26.44,-13.16 1.04,0.52 0.21,0.04 3.57,2.16 -1.91,-0.69 -2.99,-1.1 -4.74,-1.25 -1.74,-0.16 -1.49,1.11 -1.49,1.11 -0.02,0.53 0.7,1.17 0.7,1.17 -10.57,2.59 -15.82,4.91 -24.48,9.97z"/>
   <path class="fil27" d="M58.3 12.66c-0.37,2.4 -1.22,4.28 -2.37,5.6l-1.94 0.08c0.89,-1.8 1.6,-3.63 1.61,-5.53l2.7 -0.15z"/>
   <path class="fil28" d="M55.65 30.67c4.12,2.36 5.39,3.92 6.37,5.16l3.65 0.08c-1.78,-2.52 -3.32,-3.54 -6.67,-4.91l-3.35 -0.33z"/>
   <path class="fil29" d="M7.85 30.55c18.9,-3.05 47.61,-5.36 52.54,-3.98 0.02,2.81 -0.64,4.26 -1.21,4.03 -0.75,-0.65 -35.98,-2.87 -51.33,-0.05z"/>
   <path class="fil5" d="M56.08 19.93c1.48,-0.03 3.12,2.19 3.66,4.96 0.54,2.77 -0.21,5.04 -1.69,5.07 -1.48,0.04 -3.12,-2.18 -3.66,-4.95 -0.55,-2.77 0.21,-5.04 1.69,-5.08zm0.53 0.44c1.09,0.01 2.61,1.88 2.97,4.11 0.36,2.23 -0.23,4.15 -1.38,4.17 -1.15,0.02 -2.53,-1.83 -2.97,-4.11 -0.44,-2.29 0.29,-4.18 1.38,-4.17z"/>
   <path class="fil5" d="M57.6 23.76c0.16,0 0.33,0.23 0.39,0.52 0.05,0.3 -0.03,0.54 -0.18,0.54 -0.16,0 -0.33,-0.23 -0.39,-0.52 -0.06,-0.3 0.02,-0.54 0.18,-0.54zm0.06 0.05c0.11,0 0.27,0.2 0.31,0.43 0.04,0.24 -0.02,0.44 -0.15,0.44 -0.12,0 -0.26,-0.19 -0.31,-0.43 -0.05,-0.24 0.03,-0.44 0.15,-0.44z"/>
   <path class="fil30" d="M35.45 26.15c0.02,-0.46 0.01,-0.92 0.01,-1.38 0,-0.46 0.01,-0.92 0.01,-1.38 0.46,-0.14 0.92,-0.28 1.38,-0.42 0.27,-0.09 0.48,-0.13 0.63,-0.12 0.14,0.02 0.25,0.09 0.33,0.21 0.08,0.12 0.12,0.28 0.12,0.46 -0.01,0.23 -0.08,0.44 -0.22,0.63 -0.14,0.18 -0.35,0.32 -0.65,0.42 0.11,0.03 0.19,0.07 0.25,0.11 0.12,0.09 0.24,0.21 0.35,0.36 0.09,0.13 0.18,0.27 0.26,0.41 0.09,0.14 0.18,0.28 0.26,0.42 -0.17,0.02 -0.34,0.03 -0.51,0.04 -0.13,-0.21 -0.26,-0.41 -0.4,-0.61 -0.12,-0.17 -0.22,-0.3 -0.3,-0.38 -0.08,-0.08 -0.15,-0.14 -0.21,-0.16 -0.06,-0.03 -0.12,-0.04 -0.18,-0.05 -0.05,0 -0.13,0.02 -0.23,0.04 -0.16,0.03 -0.32,0.06 -0.48,0.09 0,0.21 0.01,0.42 0.01,0.63 0,0.21 -0.01,0.42 -0.02,0.63 -0.14,0.02 -0.27,0.04 -0.41,0.05zm0.42 -1.63c0.29,-0.07 0.58,-0.13 0.88,-0.2 0.18,-0.04 0.33,-0.09 0.43,-0.15 0.11,-0.06 0.18,-0.14 0.24,-0.24 0.05,-0.1 0.09,-0.21 0.09,-0.31 0,-0.15 -0.05,-0.26 -0.15,-0.33 -0.11,-0.06 -0.27,-0.06 -0.5,0.01 -0.33,0.09 -0.65,0.19 -0.98,0.28 0,0.16 0,0.31 0,0.47 -0.01,0.16 -0.01,0.31 -0.01,0.47zm3.41 1.27c0.01,-0.53 0.01,-1.06 0,-1.58 -0.01,-0.52 -0.01,-1.05 0.01,-1.58 -0.34,0.09 -0.68,0.19 -1.02,0.28 0.01,-0.13 0.01,-0.26 0.01,-0.39 0.82,-0.25 1.64,-0.48 2.46,-0.7 -0.01,0.16 -0.01,0.31 -0.02,0.46 -0.34,0.08 -0.68,0.16 -1.02,0.24 -0.02,0.55 -0.02,1.09 -0.01,1.62 0.02,0.54 0.02,1.08 0.01,1.62 -0.14,0.01 -0.28,0.02 -0.42,0.03zm2.98 -0.26c0,-0.67 -0.02,-1.34 -0.04,-2.01 -0.02,-0.67 0.02,-1.35 0.05,-2.03 0.14,-0.03 0.27,-0.06 0.41,-0.09 -0.02,0.34 -0.04,0.68 -0.05,1.02 -0.02,0.34 -0.02,0.68 0,1.02 0.24,-0.38 0.49,-0.77 0.76,-1.16 0.27,-0.4 0.56,-0.81 0.83,-1.22 0.19,-0.03 0.37,-0.07 0.56,-0.11 -0.24,0.34 -0.47,0.68 -0.71,1.01 -0.23,0.33 -0.45,0.66 -0.67,0.98 0.25,0.38 0.5,0.77 0.73,1.16 0.24,0.4 0.46,0.81 0.69,1.23 -0.18,0.01 -0.36,0.02 -0.54,0.04 -0.19,-0.35 -0.37,-0.69 -0.56,-1.03 -0.19,-0.33 -0.38,-0.66 -0.58,-0.98 -0.16,0.24 -0.32,0.48 -0.48,0.72 0,0.24 0.01,0.47 0.01,0.71 0,0.24 0,0.47 0,0.71 -0.14,0.01 -0.28,0.02 -0.41,0.03zm2.66 -0.21c0,-0.18 0,-0.36 0,-0.54 0.25,-0.49 0.52,-0.98 0.75,-1.48 0.24,-0.5 0.48,-1 0.77,-1.51 0.13,-0.21 0.25,-0.4 0.36,-0.56 -0.57,0.04 -1.15,0.11 -1.72,0.19 0.01,-0.17 0.02,-0.35 0.03,-0.52 0.74,-0.12 1.48,-0.19 2.22,-0.23 -0.01,0.18 -0.03,0.36 -0.04,0.54 -0.33,0.54 -0.65,1.07 -0.92,1.61 -0.26,0.53 -0.52,1.08 -0.8,1.61 -0.06,0.12 -0.12,0.23 -0.18,0.34 0.65,-0.05 1.32,-0.09 1.98,-0.12 0,0.18 0,0.35 0.01,0.53 -0.82,0.04 -1.64,0.09 -2.46,0.14z"/>
   <rect class="fil31" x="70.7" y="6.15" width="1.76" height="37.55"/>
   <path class="fil32" d="M77.44 21.08l0 -8.06 4.16 0c0.76,0 1.35,0.06 1.76,0.2 0.41,0.13 0.73,0.37 0.98,0.73 0.25,0.36 0.38,0.79 0.38,1.31 0,0.45 -0.1,0.83 -0.29,1.16 -0.19,0.32 -0.45,0.59 -0.79,0.79 -0.21,0.13 -0.5,0.23 -0.87,0.32 0.29,0.1 0.51,0.19 0.65,0.29 0.09,0.07 0.22,0.21 0.39,0.43 0.18,0.21 0.29,0.38 0.35,0.5l1.21 2.33 -2.81 0 -1.33 -2.46c-0.17,-0.32 -0.32,-0.53 -0.45,-0.62 -0.18,-0.13 -0.39,-0.19 -0.62,-0.19l-0.22 0 0 3.27 -2.5 0zm2.5 -4.79l1.06 0c0.11,0 0.33,-0.03 0.66,-0.11 0.16,-0.03 0.3,-0.11 0.4,-0.25 0.11,-0.14 0.16,-0.29 0.16,-0.47 0,-0.26 -0.08,-0.46 -0.25,-0.6 -0.17,-0.14 -0.47,-0.21 -0.93,-0.21l-1.1 0 0 1.64zm6.23 -3.27l6.67 0 0 1.72 -4.17 0 0 1.28 3.86 0 0 1.65 -3.86 0 0 1.58 4.29 0 0 1.83 -6.79 0 0 -8.06zm8.11 0l3.29 0 1.25 4.9 1.25 -4.9 3.27 0 0 8.06 -2.03 0 0 -6.15 -1.58 6.15 -1.84 0 -1.57 -6.15 0 6.15 -2.04 0 0 -8.06zm13.84 0l7.58 0 0 1.99 -2.54 0 0 6.07 -2.49 0 0 -6.07 -2.55 0 0 -1.99zm8.73 8.06l0 -8.06 4.15 0c0.77,0 1.36,0.06 1.77,0.2 0.4,0.13 0.73,0.37 0.98,0.73 0.25,0.36 0.38,0.79 0.38,1.31 0,0.45 -0.1,0.83 -0.29,1.16 -0.19,0.32 -0.45,0.59 -0.79,0.79 -0.21,0.13 -0.5,0.23 -0.87,0.32 0.29,0.1 0.51,0.19 0.64,0.29 0.09,0.07 0.23,0.21 0.4,0.43 0.17,0.21 0.29,0.38 0.35,0.5l1.21 2.33 -2.82 0 -1.33 -2.46c-0.17,-0.32 -0.32,-0.53 -0.45,-0.62 -0.18,-0.13 -0.38,-0.19 -0.61,-0.19l-0.22 0 0 3.27 -2.5 0zm2.5 -4.79l1.05 0c0.12,0 0.34,-0.03 0.66,-0.11 0.17,-0.03 0.3,-0.11 0.41,-0.25 0.1,-0.14 0.16,-0.29 0.16,-0.47 0,-0.26 -0.09,-0.46 -0.25,-0.6 -0.17,-0.14 -0.48,-0.21 -0.93,-0.21l-1.1 0 0 1.64zm11.19 3.46l-2.83 0 -0.4 1.33 -2.54 0 3.03 -8.06 2.73 0 3.02 8.06 -2.61 0 -0.4 -1.33zm-0.53 -1.75l-0.88 -2.89 -0.88 2.89 1.76 0zm4.35 -4.98l2.32 0 3.03 4.45 0 -4.45 2.35 0 0 8.06 -2.35 0 -3.01 -4.43 0 4.43 -2.34 0 0 -8.06zm8.93 5.39l2.36 -0.15c0.05,0.39 0.16,0.68 0.32,0.88 0.25,0.32 0.62,0.49 1.1,0.49 0.35,0 0.63,-0.09 0.82,-0.25 0.19,-0.17 0.29,-0.36 0.29,-0.58 0,-0.21 -0.09,-0.4 -0.28,-0.56 -0.18,-0.17 -0.6,-0.32 -1.27,-0.47 -1.09,-0.25 -1.87,-0.57 -2.33,-0.98 -0.47,-0.4 -0.71,-0.92 -0.71,-1.55 0,-0.42 0.12,-0.81 0.36,-1.17 0.24,-0.37 0.6,-0.66 1.09,-0.87 0.48,-0.21 1.14,-0.32 1.98,-0.32 1.03,0 1.81,0.19 2.35,0.58 0.54,0.38 0.86,0.99 0.97,1.83l-2.34 0.14c-0.07,-0.37 -0.2,-0.64 -0.4,-0.8 -0.2,-0.17 -0.47,-0.25 -0.82,-0.25 -0.29,0 -0.51,0.06 -0.66,0.18 -0.15,0.12 -0.22,0.27 -0.22,0.45 0,0.13 0.06,0.24 0.18,0.35 0.11,0.1 0.39,0.2 0.83,0.29 1.09,0.24 1.87,0.48 2.34,0.72 0.47,0.24 0.81,0.53 1.03,0.89 0.21,0.35 0.32,0.75 0.32,1.19 0,0.52 -0.15,1 -0.43,1.43 -0.29,0.44 -0.69,0.77 -1.2,1 -0.51,0.22 -1.16,0.33 -1.94,0.33 -1.37,0 -2.32,-0.26 -2.85,-0.79 -0.52,-0.53 -0.82,-1.2 -0.89,-2.01zm-65.87 10.48l2.49 0 0 3.05 2.61 -3.05 3.31 0 -2.94 3.03 3.08 5.04 -3.07 0 -1.7 -3.31 -1.29 1.34 0 1.97 -2.49 0 0 -8.07zm9.18 0l7.04 0 0 1.62 -4.52 4.71 4.69 0 0 1.74 -7.65 0 0 -1.68 4.47 -4.66 -4.03 0 0 -1.73z"/>
  </g>
 </g>
</svg>
